<svg xmlns="http://www.w3.org/2000/svg" xmlns:xlink="http://www.w3.org/1999/xlink" viewBox="0 0 1481.86 1142.95"><defs><style>.cls-1{fill:url(#_ÂÁ_Ï_ÌÌ_È_ËÂÌÚ_12);}.cls-2{fill:url(#_ÂÁ_Ï_ÌÌ_È_ËÂÌÚ_196);}.cls-3{fill:url(#_ÂÁ_Ï_ÌÌ_È_ËÂÌÚ_196-2);}.cls-4{fill:url(#_ÂÁ_Ï_ÌÌ_È_ËÂÌÚ_208);}.cls-5{isolation:isolate;}.cls-6{fill:url(#_ÂÁ_Ï_ÌÌ_È_ËÂÌÚ_31);}.cls-7{opacity:0.2;}.cls-62,.cls-7{mix-blend-mode:screen;}.cls-10,.cls-62,.cls-8,.cls-9{fill:#fff;}.cls-32,.cls-9{opacity:0.5;}.cls-10,.cls-28,.cls-62{opacity:0.8;}.cls-11{fill:#5b697d;}.cls-12{fill:#4a5b6a;}.cls-13{fill:#298797;}.cls-14{fill:#227380;}.cls-15{fill:#31a1b0;}.cls-16{fill:#54606a;}.cls-17{fill:#4d595e;}.cls-18{fill:#6b5e46;}.cls-19{fill:url(#_ÂÁ_Ï_ÌÌ_È_ËÂÌÚ_338);}.cls-20,.cls-32{fill:#2c41a6;}.cls-20,.cls-51,.cls-63{opacity:0.3;}.cls-20,.cls-32,.cls-51,.cls-52,.cls-55,.cls-61,.cls-63{mix-blend-mode:multiply;}.cls-21{fill:#ffe9e9;}.cls-22{mask:url(#mask);}.cls-23{fill:#fff7e6;}.cls-24{fill:#fff6e1;}.cls-25{fill:#fff1d4;}.cls-26{opacity:0.4;}.cls-27{fill:#eadabb;}.cls-28{mix-blend-mode:lighten;}.cls-29{fill:#ffca45;}.cls-30{fill:#ffe8ae;}.cls-31{mask:url(#mask-2);}.cls-33{mask:url(#mask-3);}.cls-34{fill:#363344;}.cls-35{fill:#c6753e;}.cls-36{fill:#ffe180;}.cls-37{fill:#a85427;}.cls-38{fill:#393749;}.cls-39{fill:#2d2c3a;}.cls-40{fill:#efdeaf;}.cls-41{fill:#626376;}.cls-42{fill:#535568;}.cls-43{fill:#ffbc36;}.cls-44{fill:#f90;}.cls-45{fill:#ffdc48;}.cls-46{fill:#c5bbc7;}.cls-47{fill:#aca0af;}.cls-48{fill:#e7dee8;}.cls-49{fill:#f1ebf2;}.cls-50{fill:#ff9d00;}.cls-51,.cls-52,.cls-55{fill:#ad7f51;}.cls-52{opacity:0.25;}.cls-53{fill:#f09c00;}.cls-54{fill:#f49c5b;}.cls-55,.cls-61{opacity:0.6;}.cls-56{fill:#ffe471;}.cls-57{fill:#ffa300;}.cls-58{fill:#ffe35a;}.cls-59{mask:url(#mask-4);}.cls-60{fill:#4c4c5e;}.cls-61,.cls-63{fill:#725791;}.cls-64{fill:#777990;}.cls-65{fill:#a6aabf;}.cls-66{fill:#c7cde6;}.cls-67{fill:#fffdf8;}</style><radialGradient id="_ÂÁ_Ï_ÌÌ_È_ËÂÌÚ_12" cx="224.72" cy="766.44" r="37.42" gradientTransform="translate(0 -269.03) scale(1 1.25)" gradientUnits="userSpaceOnUse"><stop offset="0" stop-color="#fff"/><stop offset="0.61" stop-color="#fff"/><stop offset="0.73" stop-color="#a9a9a9"/><stop offset="0.86" stop-color="#4f4f4f"/><stop offset="0.95" stop-color="#161616"/><stop offset="1"/></radialGradient><linearGradient id="_ÂÁ_Ï_ÌÌ_È_ËÂÌÚ_196" x1="219.74" y1="1008.04" x2="271.9" y2="1008.04" gradientUnits="userSpaceOnUse"><stop offset="0" stop-color="#fff"/><stop offset="1"/></linearGradient><linearGradient id="_ÂÁ_Ï_ÌÌ_È_ËÂÌÚ_196-2" x1="-327.7" y1="1008.04" x2="-275.54" y2="1008.04" gradientTransform="matrix(1, 0, 0, -1, 409.23, 2016.07)" xlink:href="#_ÂÁ_Ï_ÌÌ_È_ËÂÌÚ_196"/><radialGradient id="_ÂÁ_Ï_ÌÌ_È_ËÂÌÚ_208" cx="440.31" cy="998.71" r="24.32" gradientTransform="translate(0 -269.03) scale(1 1.25)" gradientUnits="userSpaceOnUse"><stop offset="0" stop-color="#fff"/><stop offset="0.16" stop-color="#fff"/><stop offset="0.42" stop-color="#a9a9a9"/><stop offset="0.7" stop-color="#4f4f4f"/><stop offset="0.9" stop-color="#161616"/><stop offset="1"/></radialGradient><linearGradient id="_ÂÁ_Ï_ÌÌ_È_ËÂÌÚ_31" x1="275.96" y1="1096.56" x2="275.96" y2="-102.13" gradientUnits="userSpaceOnUse"><stop offset="0" stop-color="#ffb3b3"/><stop offset="1" stop-color="#5a90db"/></linearGradient><linearGradient id="_ÂÁ_Ï_ÌÌ_È_ËÂÌÚ_338" x1="18.02" y1="1008.21" x2="581.63" y2="1008.21" gradientUnits="userSpaceOnUse"><stop offset="0" stop-color="#31a1b0"/><stop offset="0.08" stop-color="#87ae7f"/><stop offset="0.12" stop-color="#b1b36d"/><stop offset="0.17" stop-color="#d3b65f"/><stop offset="0.21" stop-color="#ebb955"/><stop offset="0.25" stop-color="#faba4f"/><stop offset="0.28" stop-color="#ffbb4d"/><stop offset="0.56" stop-color="#87ae7f"/><stop offset="1" stop-color="#31a1b0"/></linearGradient><mask id="mask" x="652.27" y="724.95" width="74.83" height="93.78" maskUnits="userSpaceOnUse"><g transform="translate(464.97 80.37)"><ellipse class="cls-1" cx="224.72" cy="691.46" rx="37.42" ry="46.89"/></g></mask><mask id="mask-2" x="684.71" y="1087.51" width="52.16" height="1.81" maskUnits="userSpaceOnUse"><g transform="translate(464.97 80.37)"><rect class="cls-2" x="219.74" y="1007.13" width="52.16" height="1.81"/></g></mask><mask id="mask-3" x="546.51" y="1087.51" width="52.16" height="1.81" maskUnits="userSpaceOnUse"><g transform="translate(464.97 80.37)"><rect class="cls-3" x="81.54" y="1007.13" width="52.16" height="1.81" transform="translate(215.23 2016.07) rotate(180)"/></g></mask><mask id="mask-4" x="880.96" y="1032.43" width="48.63" height="60.95" maskUnits="userSpaceOnUse"><g transform="translate(464.97 80.37)"><ellipse class="cls-4" cx="440.31" cy="982.54" rx="24.32" ry="30.47"/></g></mask></defs><g class="cls-5"><g id="_1" data-name="1"><path class="cls-6" d="M-464.74,1062.58S-499.9-80.37,298.44-80.37s716.05,1142.95,716.05,1142.95Z" transform="translate(464.97 80.37)"/><g class="cls-7"><path class="cls-8" d="M10.3,924.58c21-5.73,43.58-14.91,65.59-14.87,20.86,0,39.67,1,59.8,6,26.07,6.58,48.91,8.83,75.29,1.13,16-4.66,34.32-13.94,51.56-12.69,15.07,1.1,31.91.86,45.83,6.06,11.79,4.4,33.28,8.14,52,6.26,13.21-1.33,26.25-4.92,39.55-5.74,28-1.71,53.73,9.27,80.9,13.25,10.67,1.56,20.39,3.08,30.62,5.37,6.58,1.47,14.5-.35,21.2-1.5,21.69-3.72,44.07-1.9,65.91.59,9,1,18.08,1.73,27.16,2.42-.43-14.16-1.37-30.53-3.18-48.36-13.72-.52-27.43-.67-41.17.7-30.22,3-59,11.29-89.55,12.15-14,.39-27.52-1.67-41.24-3.31A202.11,202.11,0,0,0,407,892c-15.76,1.56-34.48,5.48-50.16,5-27.38-.88-51.68-7.76-79.2-10.34-34.85-3.28-46.23,5.77-66.79,1.1-15.95-3.62-25.43-15.77-41.91-17.62-28.28-3.16-41.59,1.3-69.41,3.31-6.3.45-17,2.75-29.46,6-11.77,3.12-33.47,12.65-43.22,14.86-16.08,3.67-34.21.89-51.4-.47-1.68,12.73-2.89,24.56-3.74,35.2h.18A132.1,132.1,0,0,0,10.3,924.58Z" transform="translate(464.97 80.37)"/><path class="cls-9" d="M30.05,837.67c17.67-2.36,35.52-7.25,53.49-6.33,28.72,1.46,56.69,8.07,85.81,5.36,34.77-3.24,66.47-19.72,102.36-16.17,11.56,1.15,19.64,3.31,34,5,38.78,4.44,63.65-14.41,98.23-3.86,25.26,7.72,47.48,25.6,74.3,22.57,21-2.37,38.56-15.06,59.34-18.7,14.39-2.52,29.63-6.08,44.11-7.22-10.72-5.06-28.36-2.38-40.4-2.19a129.16,129.16,0,0,0-24.41,2.29c-7.38,1.58-13.68,3.11-21.51,3.24-29.47.5-62.09,3-90.93-3-19.56-4.05-38.38-9.84-58.23-13.22-25.45-4.32-47.08-4.94-73.35-3.14-24.23,1.66-46.5,13-70.6,15.53-15.72,1.65-27.29-8.68-39.9-9.49a291.27,291.27,0,0,0-59.47,2.2c-21.17,2.79-39.69,17.73-60.41,22.15-13.31,2.85-24.22,0-41.25-.55-4.7-.15-9.77-.59-14.65-.34q-1.44,6.22-2.72,12.34c5.77-1.34,11.47-2.79,17-4C10.2,838.14,20.5,839,30.05,837.67Z" transform="translate(464.97 80.37)"/><path class="cls-10" d="M10.63,772.24c17.67-1.14,35-3.33,52.42-6.09,17.9-2.85,33.07-3.87,50.5.7,28.24,7.4,53.84,4,82.33-2.23,45-9.84,121,6,153.69-11.09l-7-9.61c-24.78,8.72-45.17,13-62,13-29.1,0-39.73-8.77-51.44-10.11-18.61-2.13-31.95-2.14-50.44-.54-14.22,1.23-30.78,11.14-45.18,10.46-17-.81-31.82-13.73-47.29-17.49-16.17-3.94-33.13-5.34-49.64-7.35a90.59,90.59,0,0,1-14.85-3.18,463.26,463.26,0,0,0-18,43.8C6,772.46,8.23,772.39,10.63,772.24Z" transform="translate(464.97 80.37)"/><path class="cls-8" d="M522.37,708.39c-12.17-1.26-22.93.13-34.7,2.48-11.09,2.21-24.08,6.43-35.45,5.2-14.33-1.56-29.42-2.9-44-1.23-14.78,1.7-32.69,5.3-44.2,13.77,37.91-11.43,82.59-6,121.69-.68,24.58,3.36,50.72,4.84,75.18.38,7.11-1.29,14.87-2.37,22.69-3.1q-2.79-6.42-5.85-12.74C559,713.68,541.71,710.39,522.37,708.39Z" transform="translate(464.97 80.37)"/></g><path class="cls-11" d="M138.12,981.32h4.65c-.85-95.79-1.76-119.81-.26-179.58h-4.13C139.66,867.42,139,900.1,138.12,981.32Z" transform="translate(464.97 80.37)"/><path class="cls-12" d="M138.38,801.74h1.22c1.28,65.68.57,98.36-.26,179.58h-1.22C139,900.1,139.66,867.42,138.38,801.74Z" transform="translate(464.97 80.37)"/><path class="cls-12" d="M139,817.38a.58.58,0,0,0,.51-.56.65.65,0,0,0-.45-.72c-7.84-1.21-9.14-12.13-9.19-12.59s-.29-.6-.57-.55a.63.63,0,0,0-.44.72c0,.13,1.45,12.36,10.08,13.69Z" transform="translate(464.97 80.37)"/><path class="cls-12" d="M130.47,815.09a12.56,12.56,0,0,0,3.16-.42.65.65,0,0,0,.4-.76c-.06-.35-.33-.57-.6-.5-10.22,2.64-14.38-9-14.42-9.09a.48.48,0,0,0-.67-.33.7.7,0,0,0-.26.84C118.12,805,121.74,815.09,130.47,815.09Z" transform="translate(464.97 80.37)"/><path class="cls-12" d="M120.84,810.89a5.74,5.74,0,0,0,.71,0,.61.61,0,0,0,.47-.69c0-.35-.27-.61-.55-.58-4.74.48-6.55-4.54-6.57-4.59a.47.47,0,0,0-.67-.33.7.7,0,0,0-.26.84C114,805.56,115.92,810.89,120.84,810.89Z" transform="translate(464.97 80.37)"/><path class="cls-11" d="M141.91,817.85H142a11.44,11.44,0,0,0,8.65-11.48.59.59,0,0,0-.5-.65c-.3,0-.52.27-.52.62-.12,8.6-7.47,10.18-7.79,10.24a.66.66,0,0,0-.42.74A.56.56,0,0,0,141.91,817.85Z" transform="translate(464.97 80.37)"/><path class="cls-11" d="M149.25,815.28a13.35,13.35,0,0,0,12.2-7.2.77.77,0,0,0-.14-.89.45.45,0,0,0-.71.17c-4.43,8.21-13.29,6.5-13.38,6.48-.28-.06-.54.18-.59.53a.64.64,0,0,0,.42.73A11.57,11.57,0,0,0,149.25,815.28Z" transform="translate(464.97 80.37)"/><path class="cls-11" d="M160.68,812.47a7.39,7.39,0,0,0,7.18-4.84.73.73,0,0,0-.21-.87.47.47,0,0,0-.69.27c-2.39,5.67-8.34,3.92-8.4,3.9-.27-.09-.55.13-.61.47a.66.66,0,0,0,.37.77A8.83,8.83,0,0,0,160.68,812.47Z" transform="translate(464.97 80.37)"/><path class="cls-13" d="M109.72,770.51c.53-4.52,4.9-8,10.22-8a11.16,11.16,0,0,1,6.26,1.86c3.76-6.38,11.38-10.74,20.16-10.74,12,0,21.85,8.15,22.61,18.46,3.88.58,6.89,3.39,7.24,6.87,5.54,2.64,9.31,7.77,9.31,13.66,0,8.59-8,15.55-17.84,15.55a20,20,0,0,1-5.42-.73,9.59,9.59,0,0,1-4.79,1.24,9.84,9.84,0,0,1-3.71-.71,24.66,24.66,0,0,1-9.14,1.73,23.59,23.59,0,0,1-15.37-5.48,24.13,24.13,0,0,1-13,3.7c-12.11,0-21.93-8.56-21.93-19.12C94.34,780.19,100.81,772.94,109.72,770.51Z" transform="translate(464.97 80.37)"/><path class="cls-14" d="M152,771.62s-19-5.48-25.08,11.87a16.56,16.56,0,0,0-8.28-5.17,9,9,0,0,1,7.3,1.82S134,760.66,152,771.62Z" transform="translate(464.97 80.37)"/><path class="cls-14" d="M162.7,781.66s4.39,5.48,4.14,15.83C166.84,797.49,171.47,785.62,162.7,781.66Z" transform="translate(464.97 80.37)"/><path class="cls-14" d="M97.22,779.29c-6.55,21.12,15.79,34.11,32.52,20.63,6.57,8.46,15.95,9.59,23.39,3.76,2.72,3.49,5.84,3.84,8.11-.53,14.47,7.1,26.43-4,21.66-18.68a14,14,0,0,1,2.62,8.11c0,8.59-8,15.55-17.84,15.55a20,20,0,0,1-5.42-.73,9.59,9.59,0,0,1-4.79,1.24,9.84,9.84,0,0,1-3.71-.71,24.66,24.66,0,0,1-9.14,1.73,23.59,23.59,0,0,1-15.37-5.48,24.13,24.13,0,0,1-13,3.7c-12.11,0-21.93-8.56-21.93-19.12A17.17,17.17,0,0,1,97.22,779.29Z" transform="translate(464.97 80.37)"/><path class="cls-11" d="M540.45,981.32H535c1-113.07,2.07-141.43.3-212h4.87C538.63,846.87,539.47,885.45,540.45,981.32Z" transform="translate(464.97 80.37)"/><path class="cls-12" d="M540.14,769.34h-1.43c-1.52,77.53-.67,116.11.3,212h1.44C539.47,885.45,538.63,846.87,540.14,769.34Z" transform="translate(464.97 80.37)"/><path class="cls-12" d="M539.45,787.8a.67.67,0,0,1-.6-.66.75.75,0,0,1,.52-.85c9.26-1.43,10.79-14.32,10.85-14.86s.35-.71.68-.65a.75.75,0,0,1,.52.85c0,.15-1.72,14.59-11.9,16.16Z" transform="translate(464.97 80.37)"/><path class="cls-12" d="M549.48,785.09a14.89,14.89,0,0,1-3.73-.49.77.77,0,0,1-.47-.89.62.62,0,0,1,.71-.59c12.06,3.11,17-10.6,17-10.73a.56.56,0,0,1,.79-.4.86.86,0,0,1,.31,1C564.06,773.12,559.78,785.09,549.48,785.09Z" transform="translate(464.97 80.37)"/><path class="cls-12" d="M560.84,780.14c-.27,0-.54,0-.83,0a.73.73,0,0,1-.55-.82.66.66,0,0,1,.65-.69c5.59.56,7.73-5.36,7.75-5.42a.56.56,0,0,1,.79-.39.85.85,0,0,1,.31,1C568.94,773.85,566.66,780.14,560.84,780.14Z" transform="translate(464.97 80.37)"/><path class="cls-11" d="M536,788.36h-.09c-.1,0-10-2.12-10.21-13.55a.7.7,0,0,1,.6-.77c.34,0,.6.33.61.74.14,10.15,8.82,12,9.19,12.09a.76.76,0,0,1,.5.86A.67.67,0,0,1,536,788.36Z" transform="translate(464.97 80.37)"/><path class="cls-11" d="M527.31,785.32a15.76,15.76,0,0,1-14.4-8.5.89.89,0,0,1,.17-1.05.53.53,0,0,1,.83.21c5.23,9.69,15.69,7.67,15.8,7.64.33-.07.64.22.69.63a.75.75,0,0,1-.5.86A13.75,13.75,0,0,1,527.31,785.32Z" transform="translate(464.97 80.37)"/><path class="cls-11" d="M513.82,782a8.7,8.7,0,0,1-8.48-5.71.87.87,0,0,1,.25-1,.55.55,0,0,1,.82.31c2.82,6.69,9.84,4.63,9.91,4.61a.61.61,0,0,1,.73.55.78.78,0,0,1-.45.91A10.55,10.55,0,0,1,513.82,782Z" transform="translate(464.97 80.37)"/><path class="cls-13" d="M574,732.47c-.63-5.33-5.79-9.48-12.07-9.48a13.26,13.26,0,0,0-7.39,2.18c-4.44-7.52-13.43-12.67-23.8-12.67-14.18,0-25.79,9.62-26.69,21.79-4.58.69-8.13,4-8.54,8.11-6.55,3.11-11,9.17-11,16.13,0,10.14,9.43,18.36,21.05,18.36A24,24,0,0,0,512,776a11.67,11.67,0,0,0,10,.62,28.87,28.87,0,0,0,10.79,2.05,27.86,27.86,0,0,0,18.15-6.48,28.33,28.33,0,0,0,15.31,4.38c14.3,0,25.89-10.11,25.89-22.57C592.13,743.9,584.49,735.34,574,732.47Z" transform="translate(464.97 80.37)"/><path class="cls-14" d="M524.08,733.78s22.43-6.46,29.62,14a19.5,19.5,0,0,1,9.77-6.1,10.71,10.71,0,0,0-8.62,2.15S545.36,720.85,524.08,733.78Z" transform="translate(464.97 80.37)"/><path class="cls-14" d="M511.43,745.64s-5.17,6.47-4.88,18.68C506.55,764.32,501.08,750.31,511.43,745.64Z" transform="translate(464.97 80.37)"/><path class="cls-14" d="M588.73,742.83c7.74,24.94-18.64,40.27-38.38,24.36-7.76,10-18.84,11.32-27.62,4.43-3.21,4.12-6.89,4.55-9.57-.62-17.09,8.38-31.21-4.67-25.57-22a16.58,16.58,0,0,0-3.09,9.58c0,10.14,9.43,18.36,21.05,18.36A24,24,0,0,0,512,776a11.67,11.67,0,0,0,10,.62,28.87,28.87,0,0,0,10.79,2.05,27.86,27.86,0,0,0,18.15-6.48,28.33,28.33,0,0,0,15.31,4.38c14.3,0,25.89-10.11,25.89-22.57A20.33,20.33,0,0,0,588.73,742.83Z" transform="translate(464.97 80.37)"/><path class="cls-11" d="M388,981.32h-5.94c1.07-122.57,2.24-153.31.33-229.79h5.28C386.05,835.57,387,877.4,388,981.32Z" transform="translate(464.97 80.37)"/><path class="cls-12" d="M387.69,751.53h-1.56c-1.64,84-.73,125.87.33,229.79H388C387,877.4,386.05,835.57,387.69,751.53Z" transform="translate(464.97 80.37)"/><path class="cls-12" d="M386.93,771.54a.74.74,0,0,1-.65-.72.8.8,0,0,1,.57-.91c10-1.55,11.7-15.52,11.76-16.12a.71.71,0,0,1,.74-.7.82.82,0,0,1,.56.93c0,.15-1.86,15.81-12.9,17.52Z" transform="translate(464.97 80.37)"/><path class="cls-12" d="M397.81,768.61a16.2,16.2,0,0,1-4.05-.54.84.84,0,0,1-.51-1,.67.67,0,0,1,.77-.63c13.08,3.37,18.4-11.48,18.45-11.64a.61.61,0,0,1,.86-.42.92.92,0,0,1,.34,1.08C413.62,755.63,409,768.61,397.81,768.61Z" transform="translate(464.97 80.37)"/><path class="cls-12" d="M410.13,763.24c-.3,0-.6,0-.9,0a.78.78,0,0,1-.6-.88.71.71,0,0,1,.7-.75c6.06.61,8.38-5.81,8.4-5.88a.61.61,0,0,1,.86-.42.91.91,0,0,1,.33,1.08C418.9,756.42,416.43,763.24,410.13,763.24Z" transform="translate(464.97 80.37)"/><path class="cls-11" d="M383.17,772.15h-.11c-.11,0-10.88-2.3-11.06-14.69a.76.76,0,0,1,.65-.83c.37,0,.65.35.66.8.15,11,9.56,13,10,13.1a.82.82,0,0,1,.54.94A.72.72,0,0,1,383.17,772.15Z" transform="translate(464.97 80.37)"/><path class="cls-11" d="M373.78,768.85a17.08,17.08,0,0,1-15.61-9.21,1,1,0,0,1,.18-1.13.56.56,0,0,1,.9.22c5.67,10.5,17,8.31,17.13,8.29.36-.08.69.23.75.67a.83.83,0,0,1-.54.94A15.6,15.6,0,0,1,373.78,768.85Z" transform="translate(464.97 80.37)"/><path class="cls-11" d="M359.16,765.26a9.45,9.45,0,0,1-9.2-6.19.94.94,0,0,1,.28-1.11.59.59,0,0,1,.88.34c3.05,7.25,10.66,5,10.74,5,.35-.11.7.16.79.6a.85.85,0,0,1-.48,1A11.44,11.44,0,0,1,359.16,765.26Z" transform="translate(464.97 80.37)"/><path class="cls-13" d="M424.36,711.57c-.68-5.78-6.27-10.29-13.08-10.29a14.35,14.35,0,0,0-8,2.38c-4.81-8.16-14.56-13.74-25.8-13.74-15.37,0-28,10.43-28.92,23.62-5,.75-8.83,4.34-9.27,8.79-7.09,3.38-11.91,9.94-11.91,17.48,0,11,10.22,19.9,22.82,19.9a25.84,25.84,0,0,0,6.94-.93,12.42,12.42,0,0,0,6.13,1.59,12.56,12.56,0,0,0,4.75-.92,31.35,31.35,0,0,0,11.69,2.22,30.23,30.23,0,0,0,19.68-7,30.73,30.73,0,0,0,16.6,4.74c15.49,0,28.06-11,28.06-24.47C444,724,435.76,714.68,424.36,711.57Z" transform="translate(464.97 80.37)"/><path class="cls-14" d="M370.28,713s24.31-7,32.1,15.19a21.23,21.23,0,0,1,10.6-6.62s-5.3-1.17-9.35,2.33C403.63,723.89,393.34,699,370.28,713Z" transform="translate(464.97 80.37)"/><path class="cls-14" d="M356.57,725.84s-5.61,7-5.3,20.25C351.27,746.09,345.35,730.9,356.57,725.84Z" transform="translate(464.97 80.37)"/><path class="cls-14" d="M440.35,722.8c8.39,27-20.2,43.65-41.6,26.41-8.41,10.82-20.42,12.26-29.93,4.8-3.49,4.47-7.48,4.92-10.38-.67-18.52,9.08-33.83-5.07-27.72-23.91a17.94,17.94,0,0,0-3.35,10.38c0,11,10.22,19.9,22.82,19.9a25.84,25.84,0,0,0,6.94-.93,12.42,12.42,0,0,0,6.13,1.59,12.56,12.56,0,0,0,4.75-.92,31.35,31.35,0,0,0,11.69,2.22,30.23,30.23,0,0,0,19.68-7,30.73,30.73,0,0,0,16.6,4.74c15.49,0,28.06-11,28.06-24.47A21.93,21.93,0,0,0,440.35,722.8Z" transform="translate(464.97 80.37)"/><path class="cls-11" d="M116.06,981.32h6.61c-1.2-136.39-2.5-222.77-.37-307.87h-5.87C118.25,767,117.23,865.67,116.06,981.32Z" transform="translate(464.97 80.37)"/><path class="cls-12" d="M116.43,673.45h1.73c1.83,93.51.81,192.22-.37,307.87h-1.73C117.23,865.67,118.25,767,116.43,673.45Z" transform="translate(464.97 80.37)"/><path class="cls-12" d="M117.27,695.71a.81.81,0,0,0,.72-.8.91.91,0,0,0-.63-1c-11.17-1.72-13-17.27-13.09-17.93-.06-.5-.43-.85-.82-.78a.89.89,0,0,0-.62,1c0,.17,2.06,17.59,14.35,19.49Z" transform="translate(464.97 80.37)"/><path class="cls-12" d="M105.17,692.45a18.12,18.12,0,0,0,4.5-.6.93.93,0,0,0,.57-1.08.77.77,0,0,0-.86-.71c-14.54,3.76-20.29-12.26-20.53-12.94a.68.68,0,0,0-1-.47,1,1,0,0,0-.38,1.19C87.57,678,92.74,692.45,105.17,692.45Z" transform="translate(464.97 80.37)"/><path class="cls-12" d="M91.46,686.47c.32,0,.65,0,1-.05a.88.88,0,0,0,.67-1c0-.5-.37-.89-.79-.84-6.7.67-9.24-6.24-9.34-6.54a.68.68,0,0,0-1-.46,1,1,0,0,0-.37,1.2C81.69,678.88,84.44,686.47,91.46,686.47Z" transform="translate(464.97 80.37)"/><path class="cls-11" d="M121.46,696.39h.11c.12,0,12.12-2.57,12.31-16.35a.84.84,0,0,0-.71-.93h0a.83.83,0,0,0-.72.9c-.18,12.24-10.64,14.49-11.08,14.58a.91.91,0,0,0-.61,1A.81.81,0,0,0,121.46,696.39Z" transform="translate(464.97 80.37)"/><path class="cls-11" d="M131.91,692.72a19,19,0,0,0,17.36-10.25,1.06,1.06,0,0,0-.19-1.27.64.64,0,0,0-1,.25c-6.31,11.69-18.93,9.25-19,9.22a.76.76,0,0,0-.84.76.9.9,0,0,0,.6,1A17.15,17.15,0,0,0,131.91,692.72Z" transform="translate(464.97 80.37)"/><path class="cls-11" d="M148.18,688.72a10.52,10.52,0,0,0,10.23-6.89,1.05,1.05,0,0,0-.31-1.24.66.66,0,0,0-1,.39c-3.4,8.06-11.87,5.57-12,5.55-.39-.13-.79.18-.88.67a.93.93,0,0,0,.53,1.1A13,13,0,0,0,148.18,688.72Z" transform="translate(464.97 80.37)"/><path class="cls-15" d="M75.62,629c.75-6.43,7-11.44,14.55-11.44a16,16,0,0,1,8.92,2.64c5.35-9.08,16.19-15.29,28.71-15.29,17.1,0,31.1,11.61,32.18,26.28,5.54.84,9.82,4.84,10.31,9.79,7.9,3.75,13.26,11.06,13.26,19.45,0,12.23-11.37,22.15-25.4,22.15a29,29,0,0,1-7.71-1,14.15,14.15,0,0,1-12.11.74,34.93,34.93,0,0,1-13,2.48,33.64,33.64,0,0,1-21.89-7.82A34.17,34.17,0,0,1,85,682.19C67.7,682.19,53.72,670,53.72,655,53.72,642.76,62.93,632.43,75.62,629Z" transform="translate(464.97 80.37)"/><path class="cls-13" d="M135.8,630.55s-27.05-7.8-35.72,16.9a23.62,23.62,0,0,0-11.8-7.36s5.9-1.3,10.41,2.6C98.69,642.69,110.13,615,135.8,630.55Z" transform="translate(464.97 80.37)"/><path class="cls-13" d="M151.06,644.85s6.24,7.8,5.89,22.54C157,667.39,163.54,650.49,151.06,644.85Z" transform="translate(464.97 80.37)"/><path class="cls-13" d="M57.82,641.47c-9.34,30.08,22.49,48.57,46.3,29.39,9.35,12,22.72,13.65,33.31,5.34,3.88,5,8.32,5.48,11.55-.75,20.61,10.11,37.64-5.64,30.84-26.6a19.94,19.94,0,0,1,3.73,11.55c0,12.23-11.37,22.15-25.4,22.15a29.13,29.13,0,0,1-7.72-1,14.13,14.13,0,0,1-12.1.74,34.93,34.93,0,0,1-13,2.48,33.64,33.64,0,0,1-21.89-7.82A34.17,34.17,0,0,1,85,682.19C67.7,682.19,53.72,670,53.72,655A24.46,24.46,0,0,1,57.82,641.47Z" transform="translate(464.97 80.37)"/><path class="cls-11" d="M513.21,981.32H506.6c1.2-136.39,2.5-222.77.37-307.87h5.87C511,767,512,865.67,513.21,981.32Z" transform="translate(464.97 80.37)"/><path class="cls-12" d="M512.84,673.45h-1.73c-1.83,93.51-.81,192.22.37,307.87h1.73C512,865.67,511,767,512.84,673.45Z" transform="translate(464.97 80.37)"/><path class="cls-12" d="M512,695.71a.81.81,0,0,1-.72-.8.9.9,0,0,1,.64-1c11.16-1.72,13-17.27,13.08-17.93.06-.5.43-.85.82-.78a.89.89,0,0,1,.62,1c0,.17-2.06,17.59-14.35,19.49Z" transform="translate(464.97 80.37)"/><path class="cls-12" d="M524.11,692.45a18.14,18.14,0,0,1-4.51-.6.92.92,0,0,1-.56-1.08.75.75,0,0,1,.85-.71c14.54,3.76,20.29-12.26,20.53-12.94a.68.68,0,0,1,1-.47,1,1,0,0,1,.38,1.19C541.7,678,536.53,692.45,524.11,692.45Z" transform="translate(464.97 80.37)"/><path class="cls-12" d="M537.81,686.47c-.32,0-.65,0-1-.05a.88.88,0,0,1-.67-1c0-.5.38-.89.79-.84,6.7.67,9.24-6.24,9.34-6.54a.68.68,0,0,1,1-.46,1,1,0,0,1,.37,1.2C547.58,678.88,544.83,686.47,537.81,686.47Z" transform="translate(464.97 80.37)"/><path class="cls-11" d="M507.81,696.39h-.11c-.12,0-12.12-2.57-12.31-16.35a.84.84,0,0,1,.72-.93h0a.84.84,0,0,1,.73.9c.17,12.24,10.63,14.49,11.08,14.58a.91.91,0,0,1,.6,1A.81.81,0,0,1,507.81,696.39Z" transform="translate(464.97 80.37)"/><path class="cls-11" d="M497.36,692.72A19,19,0,0,1,480,682.47a1.06,1.06,0,0,1,.19-1.27.64.64,0,0,1,1,.25c6.31,11.69,18.93,9.25,19.06,9.22.4-.08.77.26.83.76a.9.9,0,0,1-.6,1A17.15,17.15,0,0,1,497.36,692.72Z" transform="translate(464.97 80.37)"/><path class="cls-11" d="M481.09,688.72a10.52,10.52,0,0,1-10.23-6.89,1.05,1.05,0,0,1,.31-1.24.66.66,0,0,1,1,.39c3.4,8.06,11.87,5.57,12,5.55.39-.13.79.18.88.67a.93.93,0,0,1-.53,1.1A13,13,0,0,1,481.09,688.72Z" transform="translate(464.97 80.37)"/><path class="cls-15" d="M553.66,629c-.76-6.43-7-11.44-14.56-11.44a16,16,0,0,0-8.92,2.64c-5.35-9.08-16.19-15.29-28.71-15.29-17.1,0-31.1,11.61-32.18,26.28C463.76,632,459.47,636,459,641c-7.9,3.75-13.26,11.06-13.26,19.45,0,12.23,11.37,22.15,25.4,22.15a29.13,29.13,0,0,0,7.72-1,14.13,14.13,0,0,0,12.1.74,34.93,34.93,0,0,0,13,2.48,33.6,33.6,0,0,0,21.89-7.82,34.18,34.18,0,0,0,18.48,5.28c17.24,0,31.22-12.19,31.22-27.23C575.55,642.76,566.34,632.43,553.66,629Z" transform="translate(464.97 80.37)"/><path class="cls-13" d="M493.47,630.55s27-7.8,35.72,16.9a23.62,23.62,0,0,1,11.8-7.36s-5.9-1.3-10.41,2.6C530.58,642.69,519.14,615,493.47,630.55Z" transform="translate(464.97 80.37)"/><path class="cls-13" d="M478.21,644.85s-6.24,7.8-5.89,22.54C472.32,667.39,465.73,650.49,478.21,644.85Z" transform="translate(464.97 80.37)"/><path class="cls-13" d="M571.45,641.47c9.34,30.08-22.48,48.57-46.3,29.39-9.35,12-22.72,13.65-33.31,5.34-3.88,5-8.32,5.48-11.55-.75-20.61,10.11-37.64-5.64-30.84-26.6a20,20,0,0,0-3.73,11.55c0,12.23,11.37,22.15,25.4,22.15a29.13,29.13,0,0,0,7.72-1,14.13,14.13,0,0,0,12.1.74,34.93,34.93,0,0,0,13,2.48,33.6,33.6,0,0,0,21.89-7.82,34.18,34.18,0,0,0,18.48,5.28c17.24,0,31.22-12.19,31.22-27.23A24.46,24.46,0,0,0,571.45,641.47Z" transform="translate(464.97 80.37)"/><path class="cls-13" d="M105.59,928.14c7.25-9.66,13.11-21.55,14.42-34.5,1.48-14.6-2.88-28.72-4.49-43.14-1.12-10-5.5-52.53-14.42-50.27-9.55,2.43-14.77,50.28-15,55.35C84.64,895,90.92,929.55,105.59,928.14Z" transform="translate(464.97 80.37)"/><path class="cls-14" d="M86.14,855.58c.19-5.07,5.41-52.92,15-55.35a2.82,2.82,0,0,1,2,.32c-8.11,6.38-12.14,47.38-12.26,51.94-1,37.39,4.09,64.11,18,62.54,2.39.11,4.68-1.65,6.74-4.39a79.75,79.75,0,0,1-10,17.5C90.92,929.55,84.64,895,86.14,855.58Z" transform="translate(464.97 80.37)"/><path class="cls-16" d="M104.31,880.26s-.09,6.46-.23,16.14,0,22.6.07,35.51c.23,25.82.47,51.64.47,51.64l2.4,0s-.27-25.82-.53-51.64c-.15-12.91-.19-25.82-.63-35.5l-.55-16.13Z" transform="translate(464.97 80.37)"/><polygon class="cls-16" points="575.27 977.72 569.65 991.58 571.1 992.42 575.9 978.08 575.27 977.72"/><path class="cls-16" d="M106.41,922.63a27.33,27.33,0,0,0-3.3-5.43,22.07,22.07,0,0,0-4.26-4.11l-.21.39a23.29,23.29,0,0,1,3.73,4.54,27.1,27.1,0,0,1,2.62,5.53Z" transform="translate(464.97 80.37)"/><path class="cls-15" d="M64.61,874.82c1.42-28.42,5.7-99.67,16.32-100.15,6.67,2.51,7.32,20.87,13.3,79,1.36,13.21,2.72,26.61,1.37,39.82s-5.74,26.47-14,34.82C65.23,919.32,63.51,896.62,64.61,874.82Z" transform="translate(464.97 80.37)"/><path class="cls-13" d="M64.61,874.82c1.42-28.42,5.7-99.67,16.32-100.15a5,5,0,0,1,1.78,1.26c-8.61,3.4-11.48,66.37-12.4,91.89-.73,20,7,48.16,15,48.85,2.65.23,4.67-2,6.28-5.42-2.34,6.57-5.58,12.53-10,17C65.23,919.32,63.51,896.62,64.61,874.82Z" transform="translate(464.97 80.37)"/><path class="cls-11" d="M81.4,863.86s-.27,7.47-.68,18.69-.45,26.18-.48,41.14l-.06,59.84,2.4,0s.17-29.92.33-59.84c.07-15,.14-29.91-.22-41.14s-.56-18.71-.56-18.71Z" transform="translate(464.97 80.37)"/><polygon class="cls-11" points="540.47 958.63 546.34 976.7 547.8 975.88 541.06 958.3 540.47 958.63"/><polygon class="cls-11" points="554.88 974.78 546.41 996.12 547.85 996.98 555.71 975.27 554.88 974.78"/><path class="cls-15" d="M328.51,901.89c-1.07-21.34-4.28-74.85-12.26-75.21-5,1.89-5.5,15.68-10,59.3-1,9.93-2,20-1,29.91s4.3,19.88,10.53,26.15C328.05,935.31,329.33,918.27,328.51,901.89Z" transform="translate(464.97 80.37)"/><path class="cls-13" d="M328.51,901.89c-1.07-21.34-4.28-74.85-12.26-75.21a3.72,3.72,0,0,0-1.33,1c6.46,2.55,8.62,49.84,9.31,69,.54,15.05-5.3,36.17-11.29,36.68-2,.18-3.51-1.52-4.71-4.06A34.27,34.27,0,0,0,315.77,942C328.05,935.31,329.33,918.27,328.51,901.89Z" transform="translate(464.97 80.37)"/><path class="cls-11" d="M315.9,893.66s.2,5.62.51,14,.34,19.66.36,30.89l.05,44.94-1.81,0-.24-44.94c0-11.23-.11-22.46.16-30.89s.42-14.05.42-14.05Z" transform="translate(464.97 80.37)"/><polygon class="cls-11" points="785.3 984.85 780.89 998.42 779.79 997.81 784.86 984.6 785.3 984.85"/><polygon class="cls-11" points="774.48 996.98 780.84 1013 779.75 1013.65 773.85 997.35 774.48 996.98"/><path class="cls-15" d="M172,901.89c-1.07-21.34-4.28-74.85-12.26-75.21-5,1.89-5.5,15.68-10,59.3-1,9.93-2.05,20-1,29.91S153,935.77,159.27,942C171.55,935.31,172.83,918.27,172,901.89Z" transform="translate(464.97 80.37)"/><path class="cls-13" d="M172,901.89c-1.07-21.34-4.28-74.85-12.26-75.21a3.72,3.72,0,0,0-1.33,1c6.46,2.55,8.62,49.84,9.31,69,.54,15.05-5.3,36.17-11.29,36.68-2,.18-3.51-1.52-4.71-4.06A34.27,34.27,0,0,0,159.27,942C171.55,935.31,172.83,918.27,172,901.89Z" transform="translate(464.97 80.37)"/><path class="cls-11" d="M159.4,893.66s.2,5.62.51,14,.34,19.66.36,30.89l0,44.94-1.81,0-.24-44.94c-.05-11.23-.11-22.46.16-30.89s.42-14.05.42-14.05Z" transform="translate(464.97 80.37)"/><polygon class="cls-11" points="628.8 984.85 624.39 998.42 623.29 997.81 628.36 984.6 628.8 984.85"/><polygon class="cls-11" points="617.98 996.98 624.34 1013 623.25 1013.65 617.35 997.35 617.98 996.98"/><path class="cls-15" d="M377.11,893.86c-1.19-12.31-1.86-30.85-2.82-43.19s-.35-60.36-9.91-60.27c-10.81.1-15.07,18.85-17.14,38.6-2.26,21.58-1.79,44.48-1.86,48.33-.81,45.95,11,54.59,15.64,62.85C367.89,933.76,380.13,925.12,377.11,893.86Z" transform="translate(464.97 80.37)"/><path class="cls-13" d="M377.11,893.86c-1.19-12.31-1.86-30.85-2.82-43.19s-.35-60.36-9.91-60.27c-.16,0-.3,0-.45.05,6.61,7.23,5.26,42.49,5.86,52.49.65,11,.86,27.47,1.74,38.45,2.24,27.86-8.88,41-17.06,40.45a7.74,7.74,0,0,1-4.3-1.77c3.6,10.88,8.3,15.58,10.85,20.11C367.89,933.76,380.13,925.12,377.11,893.86Z" transform="translate(464.97 80.37)"/><path class="cls-17" d="M362.15,838.92s-.14,2.25-.39,6.2-.65,9.56-.87,16.33c-.65,13.52-.81,31.59-.38,49.66s1.1,36.14,1.56,49.72-.05,22.72-.05,22.72l-1.76-.15s.53-8.95.11-22.5-1.1-31.64-1.42-49.74-.22-36.25.57-49.82,2.17-22.49,2.17-22.49Z" transform="translate(464.97 80.37)"/><path class="cls-18" d="M359.8,929.4a109.42,109.42,0,0,1,2.95-12.28,76.72,76.72,0,0,1,4.54-11.49l.53.41a76.29,76.29,0,0,0-4.23,11.47A109.49,109.49,0,0,0,361,929.72Z" transform="translate(464.97 80.37)"/><path class="cls-17" d="M351,885.88a101.22,101.22,0,0,1,5,9.09,86.34,86.34,0,0,1,4.07,9.87l-1.09.54a84.89,84.89,0,0,0-3.77-9.83,97.81,97.81,0,0,0-4.76-9.17Z" transform="translate(464.97 80.37)"/><path class="cls-17" d="M358.85,880.7a88.64,88.64,0,0,1,3.15-9.58,79.92,79.92,0,0,1,4.15-8.94l.34.3a82.78,82.78,0,0,0-3.77,9.06,90.31,90.31,0,0,0-2.75,9.61Z" transform="translate(464.97 80.37)"/><path class="cls-17" d="M355.14,849.19s1.66,2.85,3.12,5.88a45.71,45.71,0,0,1,1.85,4.31,15.17,15.17,0,0,1,.64,2.18l-1.15.31a14,14,0,0,0-.46-2,45.92,45.92,0,0,0-1.57-4.33c-1.27-3.11-2.76-6.08-2.76-6.08Z" transform="translate(464.97 80.37)"/><path class="cls-13" d="M540.56,826.7c-6.62-1.32-8.66,25.4-10.07,32.94-1,5.6-2.8,10.94-4.1,16.46-4,16.85-3.36,36.15,4.51,50.7,3,5.58,7,12.46,8.4,17.11,8.61-9,12.38-11.2,13.45-37.9C553.5,887.19,549.74,828.52,540.56,826.7Z" transform="translate(464.97 80.37)"/><path class="cls-14" d="M540.56,826.7a2.14,2.14,0,0,0-.67,0c6.67,7.34,8.66,56.67,7.8,73.14-1.29,24.81-8.21,30.91-11,30.6-2.32.26-6.08-3.77-9-11.19a51.71,51.71,0,0,0,3.21,7.51c3,5.58,7,12.46,8.4,17.11,8.61-9,12.38-11.2,13.45-37.9C553.5,887.19,549.74,828.52,540.56,826.7Z" transform="translate(464.97 80.37)"/><path class="cls-16" d="M538.41,894.72s.44,5.4.65,13.52.26,18.94.41,29.76.23,21.64.31,29.76,0,13.53,0,13.53l-1.8,0-.24-13.53c-.08-8.12-.18-18.94-.28-29.76s-.26-21.65-.18-29.77.38-13.53.38-13.53Z" transform="translate(464.97 80.37)"/><path class="cls-16" d="M533.94,902.32a32.31,32.31,0,0,1,2.88,4.75,42.3,42.3,0,0,1,2.15,5.34l-1.12.53a41.28,41.28,0,0,0-1.83-5.29,32.23,32.23,0,0,0-2.56-4.81Z" transform="translate(464.97 80.37)"/><path class="cls-16" d="M538.29,931.27a63.83,63.83,0,0,1,2.57-6.64,50.74,50.74,0,0,1,3.31-6.07l.46.43a49.73,49.73,0,0,0-3,6.17,64.84,64.84,0,0,0-2.23,6.65Z" transform="translate(464.97 80.37)"/><path class="cls-15" d="M479.65,779.27c-10.63.12-13,59.25-14.8,94.8-.91,18.51-.48,37.49,4.31,55.12a38.31,38.31,0,0,0,8.13,14.6c11.08-6.41,19.46-32.45,18.73-65.32C495.57,858.25,494.55,778.92,479.65,779.27Z" transform="translate(464.97 80.37)"/><path class="cls-13" d="M496,878.47c-.44-19.67-1.42-95.23-15.18-99,8.88,16.63,9.68,69.39,10.05,84.74.73,29.8-11.7,59.09-18.51,59.22-2,.12-4.31-3.83-6.08-7.94a122.05,122.05,0,0,0,2.86,13.73,38.31,38.31,0,0,0,8.13,14.6C488.37,937.38,496.75,911.34,496,878.47Z" transform="translate(464.97 80.37)"/><path class="cls-11" d="M479.17,880.36s-.2,6.48-.7,16.11-1,22.51-.67,35.39c.11,6.43.44,12.86.75,18.92.13,3,.34,6,.32,8.77s0,5.4,0,7.83l0,16.15-1.8,0s-.1-6.46-.26-16.15c0-2.42-.06-5-.1-7.82s-.16-5.59-.29-8.67c-.29-6-.6-12.5-.69-19-.21-13,.13-25.95.88-35.62s1.89-16,1.89-16Z" transform="translate(464.97 80.37)"/><path class="cls-11" d="M476.85,898.7a43.87,43.87,0,0,1,2.85-6.28,51,51,0,0,1,3.61-5.55l.22.23a53.48,53.48,0,0,0-3.2,5.83,43,43,0,0,0-2.37,6.34Z" transform="translate(464.97 80.37)"/><path class="cls-11" d="M469.47,899.23a60.58,60.58,0,0,1,4.34,7.46,66.79,66.79,0,0,1,3.34,8.25l-1.11.56a66.38,66.38,0,0,0-3-8.21,61.83,61.83,0,0,0-4.06-7.52Z" transform="translate(464.97 80.37)"/><path class="cls-11" d="M476.08,929.64s1.71-3.86,3.69-7.53a64.3,64.3,0,0,1,4.34-7l.38.41a64.75,64.75,0,0,0-4,7.15c-1.81,3.74-3.36,7.68-3.36,7.68Z" transform="translate(464.97 80.37)"/><path class="cls-13" d="M407.71,781.26c-8.69-1.72-11.36,33.21-13.21,43.06-1.37,7.32-3.67,14.31-5.38,21.52-5.21,22-4.4,47.27,5.92,66.29,4,7.29,9.13,16.29,11,22.36,11.29-11.82,16.24-14.63,17.63-49.54C424.67,860.34,419.74,783.64,407.71,781.26Z" transform="translate(464.97 80.37)"/><path class="cls-14" d="M407.71,781.26a2.86,2.86,0,0,0-.88,0c8.74,9.6,11.35,74.1,10.22,95.62-1.69,32.44-10.76,40.42-14.38,40-3,.34-8-4.94-11.85-14.63a67.54,67.54,0,0,0,4.22,9.82c4,7.29,9.13,16.29,11,22.36,11.29-11.82,16.24-14.63,17.63-49.54C424.67,860.34,419.74,783.64,407.71,781.26Z" transform="translate(464.97 80.37)"/><path class="cls-16" d="M404.88,870.18s.59,7.07.85,17.68.34,24.76.55,38.91.29,28.29.4,38.9,0,17.69,0,17.69l-2.36,0s-.13-7.07-.31-17.68-.24-24.77-.38-38.91-.34-28.3-.23-38.92.5-17.69.5-17.69Z" transform="translate(464.97 80.37)"/><path class="cls-16" d="M399,880.13a41.28,41.28,0,0,1,3.77,6.21,54.5,54.5,0,0,1,2.83,7l-1.48.69a53.85,53.85,0,0,0-2.39-6.92,41.1,41.1,0,0,0-3.36-6.29Z" transform="translate(464.97 80.37)"/><path class="cls-16" d="M404.73,918a80.58,80.58,0,0,1,3.37-8.66,64.42,64.42,0,0,1,4.34-7.95l.6.57a65.9,65.9,0,0,0-3.92,8.06,80.85,80.85,0,0,0-2.92,8.69Z" transform="translate(464.97 80.37)"/><path class="cls-13" d="M451,813.08c-5.9-1.45-7.71,28-9,36.29-.93,6.16-2.5,12-3.65,18.13-3.55,18.56-3,39.82,4,55.85,2.69,6.14,6.2,13.72,7.47,18.84,7.67-10,11-12.33,12-41.75C462.49,879.71,459.15,815.09,451,813.08Z" transform="translate(464.97 80.37)"/><path class="cls-14" d="M451,813.08a1.52,1.52,0,0,0-.6,0c5.94,8.08,7.71,62.43,6.95,80.56-1.15,27.34-7.32,34-9.77,33.71-2.06.29-5.41-4.16-8.05-12.32a63.94,63.94,0,0,0,2.87,8.27c2.69,6.14,6.2,13.72,7.47,18.84,7.67-10,11-12.33,12-41.75C462.49,879.71,459.15,815.09,451,813.08Z" transform="translate(464.97 80.37)"/><path class="cls-16" d="M449.05,888s.4,6,.58,14.89.23,20.86.37,32.78.2,23.84.27,32.78,0,14.91,0,14.91l-1.61,0s-.08-6-.21-14.9-.16-20.86-.25-32.79-.23-23.84-.16-32.78.34-14.91.34-14.91Z" transform="translate(464.97 80.37)"/><path class="cls-16" d="M445.07,896.38a37.27,37.27,0,0,1,2.56,5.24,51.55,51.55,0,0,1,1.92,5.88l-1,.58a54.33,54.33,0,0,0-1.62-5.83,39.23,39.23,0,0,0-2.29-5.3Z" transform="translate(464.97 80.37)"/><path class="cls-16" d="M449,928.27s1-3.8,2.29-7.31a58.13,58.13,0,0,1,2.95-6.69l.4.48a60.49,60.49,0,0,0-2.66,6.79c-1.17,3.55-2,7.32-2,7.32Z" transform="translate(464.97 80.37)"/><path class="cls-14" d="M24,981.5H124.07c.31-5.3-3.15-7.7-6.68-5.87,3.06-13.72-10.49-20.46-16.89-9.6-.82-12.46-10.07-8.77-12.64-2.59,5.48-22.77-26-25.16-27.71-4.34-4.84-7.77-14.3.53-12.17,7.45-7.28-4-11.59,3.22-9.72,9.58C33.65,969.9,25,976.32,24,981.5Z" transform="translate(464.97 80.37)"/><path class="cls-14" d="M182,981.5H282.12c.31-4.57-3.15-6.64-6.68-5.06,3.06-11.85-10.49-17.67-16.89-8.29-.82-10.76-10.07-7.58-12.64-2.24,5.48-19.66-26-21.73-27.71-3.75-4.84-6.71-14.3.46-12.17,6.44-7.28-3.48-11.59,2.78-9.72,8.26C191.7,971.49,183,977,182,981.5Z" transform="translate(464.97 80.37)"/><path class="cls-15" d="M275.77,981.5H384.71c.34-5.76-3.43-8.38-7.27-6.38,3.33-14.94-11.42-22.28-18.38-10.46-.9-13.56-11-9.55-13.76-2.81,6-24.8-28.33-27.4-30.16-4.73-5.27-8.46-15.57.57-13.25,8.11-7.92-4.38-12.62,3.51-10.58,10.42C286.3,968.88,276.82,975.86,275.77,981.5Z" transform="translate(464.97 80.37)"/><path class="cls-14" d="M397,981.5H520.84c.38-6.55-3.9-9.53-8.26-7.26,3.78-17-13-25.33-20.91-11.89-1-15.42-12.47-10.86-15.64-3.2,6.78-28.19-32.21-31.15-34.31-5.37-6-9.62-17.69.65-15.06,9.22-9-5-14.34,4-12,11.85C408.93,967.15,398.16,975.08,397,981.5Z" transform="translate(464.97 80.37)"/><path class="cls-15" d="M492.29,981.48H577c-2.09-6.69-6.27-9.46-10-4.16.29-4.6-1.87-11-5.42-7.6.78-7.07-6.6-2.13-7.92,1,1.7-4.3,2.2-12.39-.55-15.93-3-3.79-10-2.14-10.43,4.74-1.86-4.1-7.66-5-7.57,1.82-1.87-1.42-3.84-.15-4.48,2.9-.1-22.73-15.48-14.62-15.29-.34-4.48-4-8.07,3.85-7.54,10.29-1.1-3.71-5.05-3.11-6,.49a2.16,2.16,0,0,0-3.42.58c-3-2.93-8.06.55-6.34,6.12C492,981,492.39,981.8,492.29,981.48Z" transform="translate(464.97 80.37)"/><path class="cls-15" d="M348.41,981.48h84.73c-2.09-6.69-6.27-9.46-10-4.16.29-4.6-1.87-11-5.42-7.6.78-7.07-6.6-2.13-7.92,1,1.7-4.3,2.2-12.39-.55-15.93-2.95-3.79-10-2.14-10.43,4.74-1.86-4.1-7.65-5-7.57,1.82-1.87-1.42-3.84-.15-4.48,2.9-.1-22.73-15.48-14.62-15.29-.34-4.48-4-8.07,3.85-7.54,10.29-1.1-3.71-5.05-3.11-6,.49a2.16,2.16,0,0,0-3.42.58c-3-2.93-8.06.55-6.34,6.12C348.12,981,348.51,981.8,348.41,981.48Z" transform="translate(464.97 80.37)"/><path class="cls-19" d="M18,981.33H581.63s-64.77,53.75-291.79,53.75S18,981.33,18,981.33Z" transform="translate(464.97 80.37)"/><path class="cls-20" d="M301.1,985.27c130.49,0,238.57,1.23,272,1.66,6.37-3.55,8.55-5.6,8.55-5.6H18S20,984,25.08,987C55.53,986.57,166.67,985.27,301.1,985.27Z" transform="translate(464.97 80.37)"/><ellipse class="cls-21" cx="748.8" cy="828.47" rx="1.75" ry="2.19"/><ellipse class="cls-21" cx="929.13" cy="851.45" rx="1.75" ry="2.19"/><ellipse class="cls-21" cx="682.13" cy="690.62" rx="1.75" ry="2.19"/><ellipse class="cls-21" cx="740.71" cy="730.72" rx="1.75" ry="2.19"/><ellipse class="cls-21" cx="706.8" cy="883.61" rx="1.75" ry="2.19"/><ellipse class="cls-21" cx="603.8" cy="804.66" rx="1.75" ry="2.19"/><ellipse class="cls-21" cx="870.38" cy="767.97" rx="1.75" ry="2.19"/><ellipse class="cls-21" cx="805.13" cy="702.32" rx="1.75" ry="2.19"/><path class="cls-21" d="M379.49,656.62a1.11,1.11,0,1,0,1.09-1.36A1.25,1.25,0,0,0,379.49,656.62Z" transform="translate(464.97 80.37)"/><path class="cls-21" d="M465.75,724.6a1.11,1.11,0,1,0,1.08-1.35A1.24,1.24,0,0,0,465.75,724.6Z" transform="translate(464.97 80.37)"/><path class="cls-21" d="M169.67,620.27a1.11,1.11,0,1,0,1.08-1.35A1.24,1.24,0,0,0,169.67,620.27Z" transform="translate(464.97 80.37)"/><path class="cls-21" d="M307.49,620.27a1.11,1.11,0,1,0,1.09-1.35A1.25,1.25,0,0,0,307.49,620.27Z" transform="translate(464.97 80.37)"/><path class="cls-21" d="M384.41,584.42a1.11,1.11,0,1,0,1.08-1.35A1.24,1.24,0,0,0,384.41,584.42Z" transform="translate(464.97 80.37)"/><path class="cls-21" d="M434.41,634.06a1.11,1.11,0,1,0,1.08-1.36A1.24,1.24,0,0,0,434.41,634.06Z" transform="translate(464.97 80.37)"/><path class="cls-21" d="M206.75,757a1.11,1.11,0,1,0,1.08-1.35A1.24,1.24,0,0,0,206.75,757Z" transform="translate(464.97 80.37)"/><path class="cls-21" d="M323.75,700.48a1.11,1.11,0,1,0,1.08-1.36A1.24,1.24,0,0,0,323.75,700.48Z" transform="translate(464.97 80.37)"/><path class="cls-21" d="M278.83,572.52a1.11,1.11,0,1,0,1.08-1.36A1.24,1.24,0,0,0,278.83,572.52Z" transform="translate(464.97 80.37)"/><path class="cls-21" d="M430.67,797.39a1.11,1.11,0,1,0,1.08-1.35A1.23,1.23,0,0,0,430.67,797.39Z" transform="translate(464.97 80.37)"/><path class="cls-21" d="M171.75,826.11a1.11,1.11,0,1,0,1.08-1.35A1.24,1.24,0,0,0,171.75,826.11Z" transform="translate(464.97 80.37)"/><path class="cls-21" d="M178.75,759.9a1.11,1.11,0,1,0,1.08-1.36A1.24,1.24,0,0,0,178.75,759.9Z" transform="translate(464.97 80.37)"/><g class="cls-22"><ellipse class="cls-23" cx="689.68" cy="771.84" rx="37.42" ry="46.89"/></g><path class="cls-24" d="M252.9,692.19c0,19.56-11,34.68-27.91,34.26-15.6-.39-28.25-15.85-28.25-35.4s9.5-33.94,28.25-35.41C240.56,654.43,252.9,672.64,252.9,692.19Z" transform="translate(464.97 80.37)"/><path class="cls-25" d="M250.59,692.1c0,17.94-10.1,31.81-25.62,31.42-14.31-.35-25.92-14.54-25.92-32.48s8.72-31.14,25.92-32.48C239.26,657.45,250.59,674.16,250.59,692.1Z" transform="translate(464.97 80.37)"/><g class="cls-26"><path class="cls-27" d="M232.5,674c-3.81-3.79-8.66.13-9.36,5.19-.43,3.08,3.07,5.24,4.92,6.51,2.47,1.71,7.38,1,8.26-3C237,679.4,234.38,675.83,232.5,674Z" transform="translate(464.97 80.37)"/><path class="cls-27" d="M244.68,679.45c-.78-1.16-1.92-2.74-2.87-2.23-2.16.53-2.8,2.74-2.29,5s.14,4.62,2.38,5.09C246,688.19,246.92,682.8,244.68,679.45Z" transform="translate(464.97 80.37)"/><path class="cls-27" d="M235.11,688.5c-1.14.36-2.7,4.06,0,3.58C237.45,691.64,236.26,688.14,235.11,688.5Z" transform="translate(464.97 80.37)"/><path class="cls-27" d="M224.9,661.66c-1.14.37-2.7,4.07,0,3.58C227.23,664.81,226.05,661.3,224.9,661.66Z" transform="translate(464.97 80.37)"/><path class="cls-27" d="M227.06,669.76c.81,1.11,5.12,1.2,3.61-1.53C229.33,665.81,226.26,668.66,227.06,669.76Z" transform="translate(464.97 80.37)"/><path class="cls-27" d="M234.2,670.41c.53,2.84,5.23,7.05,5.39,2C239.69,669.25,233.93,667.22,234.2,670.41Z" transform="translate(464.97 80.37)"/><path class="cls-27" d="M215.64,672.6c1.35,2.38,7,4,5.59-.74C220.37,668.91,214.42,669.78,215.64,672.6Z" transform="translate(464.97 80.37)"/><path class="cls-27" d="M218.18,688.58c.53,2.84,5.23,7,5.39,2C223.67,687.42,217.91,685.39,218.18,688.58Z" transform="translate(464.97 80.37)"/></g><g class="cls-28"><ellipse class="cls-29" cx="642.47" cy="1089.06" rx="77.92" ry="6.5"/><path class="cls-30" d="M234.22,1008.68c0,2.62-25.39,4.74-56.72,4.74s-56.72-2.12-56.72-4.74,25.4-4.73,56.72-4.73S234.22,1006.07,234.22,1008.68Z" transform="translate(464.97 80.37)"/></g><g class="cls-31"><rect class="cls-32" x="684.71" y="1087.51" width="52.16" height="1.81"/></g><g class="cls-33"><rect class="cls-32" x="81.54" y="1007.13" width="52.16" height="1.81" transform="translate(680.2 2096.44) rotate(180)"/></g><path class="cls-34" d="M187.4,942.05a.8.8,0,0,1-.71-.86c0-.17-.46-17.28-6.45-25.14a1,1,0,0,1,0-1.25.61.61,0,0,1,1,0c6.37,8.35,6.83,25.58,6.84,26.31a.82.82,0,0,1-.68.91Z" transform="translate(464.97 80.37)"/><path class="cls-35" d="M133.86,1008.92s-.6-29.86-.4-46,.2-31.81.3-37.77,2.68-12.06,4-16.9c0-1.06-.5-1.47-1.29-1.49,0,0-3.77,12.55-4.56,12.67l-1.09,3.6s.69,32.18.69,40.51-1.29,45.39-1.29,45.39Z" transform="translate(464.97 80.37)"/><path class="cls-35" d="M220.84,920.83c-.2-3-2.38-5.72-3.7-8.7a22.28,22.28,0,0,1-1.65-5.3s.33-1.66,1.78-1.16a36.73,36.73,0,0,0,2.25,5c1.12,1.91,3.37,5.38,3.37,5.38Z" transform="translate(464.97 80.37)"/><path class="cls-36" d="M220.9,920.68l.84-2a22,22,0,0,1,.78-3.26c-.1-.16-.22-.36-.36-.57h0l-.6-.95h0c-.1-.17-.21-.33-.32-.51l0,0-.33-.53-1.59,3.4q.27.51.51,1l0,0c.15.34.3.68.43,1h0a9,9,0,0,1,.55,2.12Z" transform="translate(464.97 80.37)"/><path class="cls-37" d="M217,906.83c.52.25,1.05,5.47,4.56,8.7l.24-1.18c-.73-1.16-1.68-2.67-2.29-3.71a36.73,36.73,0,0,1-2.25-5c-1.45-.5-1.78,1.16-1.78,1.16A2.92,2.92,0,0,1,217,906.83Z" transform="translate(464.97 80.37)"/><path class="cls-35" d="M123.15,917.93s5.16-.75,16.76,0,27,3.73,34.89,3.6l.5-3.35s-4.66.37-21-1.24-20.52-2.12-31.23-1.74A5.21,5.21,0,0,0,123.15,917.93Z" transform="translate(464.97 80.37)"/><path class="cls-37" d="M123.05,915.2a5.21,5.21,0,0,0,.1,2.73,58.59,58.59,0,0,1,7.64-.33l-.65-2.52C128,915.06,125.73,915.1,123.05,915.2Z" transform="translate(464.97 80.37)"/><path class="cls-37" d="M175.3,918.18s-4.66.37-21-1.24c-11.72-1.16-17.18-1.74-23.28-1.84l.22.51s2.77-.25,11.56.58,22.94,3.4,31.79,3.07l.58,0Z" transform="translate(464.97 80.37)"/><path class="cls-36" d="M140.2,918.05c11.6.75,26.33,3.73,34.6,3.48l.22-1.45c-2.75,0-5.48-.06-7.8-.16A120,120,0,0,1,150,918.3c-6.59-1.36-15-2.23-17.77-.69C134.36,917.64,137.22,917.86,140.2,918.05Z" transform="translate(464.97 80.37)"/><path class="cls-35" d="M169.35,921.41a79.71,79.71,0,0,0,26.47-2.86,19.86,19.86,0,0,0-2.38,3.23,2.05,2.05,0,0,0,2.28.5,13.47,13.47,0,0,1,5.85-4c3.57-1.12,23.1-2,28.16-2.11,0,0,3.37-1.61,2.08-6.46,0,0-14.37,1.86-27.46,3.85s-22.9,4.72-33.81,4.6Z" transform="translate(464.97 80.37)"/><path class="cls-37" d="M223.9,916.41c2.51-.11,4.6-.19,5.83-.22,0,0,3.37-1.61,2.08-6.46,0,0-2.49.32-6.33.84Z" transform="translate(464.97 80.37)"/><path class="cls-37" d="M204.35,913.58c-13.09,2-22.9,4.72-33.81,4.6l-.38,1c1.57.07,3.06.1,4.41,0,8.86-.34,14.81-2.57,15-2.24s-2,.5-1.72.91,11.65-2.78,18.67-3.35c10.61-.87,15.07.24,18.24-.25l.93-3.79C220.3,911.27,212.1,912.4,204.35,913.58Z" transform="translate(464.97 80.37)"/><path class="cls-36" d="M195.82,918.55s-.19-1.06-7.14.44c-9.51,2-12.23,1.2-18.81,1l-.52,1.4C175.2,921.91,187,921.74,195.82,918.55Z" transform="translate(464.97 80.37)"/><path class="cls-35" d="M223.75,1008.92s-1.06-36.16-.8-50.57.4-36,1.06-39.09,3.64-10.86,4.17-13.42a1.44,1.44,0,0,0-1.85-.91s-4.17,9.52-5.09,12.5.13,17-.27,28.16-1.32,41.42-1.39,50.86.2,12.47.2,12.47Z" transform="translate(464.97 80.37)"/><path class="cls-36" d="M220.18,990.65c-.07-6.87.66-18.47.66-23s.59-25.51.59-31.31.33-12.92-.06-15.57a7.54,7.54,0,0,0-1.79-3.93,18.25,18.25,0,0,1,1.09,3.93c.15,1,.46,16.06.15,24.84-.39,11.19-1.25,41.42-1.32,50.86s.28,12.47.28,12.47H220C220,1006.86,220.24,996.8,220.18,990.65Z" transform="translate(464.97 80.37)"/><path class="cls-37" d="M197.64,920c-1.08.79-2.91,2.86-4.19,1.76v0s1.13,1.41,2.28.5,2.91-3.11,5.85-4C201.57,918.3,200.09,918.22,197.64,920Z" transform="translate(464.97 80.37)"/><path class="cls-36" d="M212.31,916.27c-8.06.58-10.74,2-10.74,2,2.36-.69,17.8-1.54,19.14-1.74A31,31,0,0,0,212.31,916.27Z" transform="translate(464.97 80.37)"/><path class="cls-36" d="M133.84,925.14a32,32,0,0,1,1-7.39c-.1.14-1.44,1.9-1.67,5.77-.25,4,0,6.4.09,12.43s-.39,24.91-.39,32.67-.83,30.3-.56,40.3h1.5s-.51-29.86-.32-46S133.74,931.1,133.84,925.14Z" transform="translate(464.97 80.37)"/><path class="cls-35" d="M130.84,924.57c-.33-4.23-1.67-8.71-2.33-11.69s-1.52-8-1.52-8a1,1,0,0,1,1.65-.25s1.19,5.71,1.91,7.87,2.25,7.12,2.25,7.12Z" transform="translate(464.97 80.37)"/><path class="cls-37" d="M131.17,1008.92c.09-5.61.53-18.23.71-30.36.2-13.25.1-28.49-.1-35s.49-18-.1-21.28-2.05-6.38-2.78-9.36c-.62-2.54-1.18-7.15-1.34-8.48a1.27,1.27,0,0,0-.57.53s.86,5,1.52,8,1.93,7.25,2.3,11.39c.13,6,.67,31.91.67,39.26,0,8.32-1.29,45.39-1.29,45.39Z" transform="translate(464.97 80.37)"/><path class="cls-36" d="M193.44,921.78c0-.45,2.42.29,2.12.66S193.58,922.53,193.44,921.78Z" transform="translate(464.97 80.37)"/><path class="cls-36" d="M226.21,905.19h0l-.12.28,0,.08c-.7,1.63-2.64,6.14-3.89,9.33-.22.58-.42,1.11-.59,1.58a8.45,8.45,0,0,0-.53,1.06,7.5,7.5,0,0,0-.16,3.12l.62,1.3a25.26,25.26,0,0,1,2.38-10.14,64.45,64.45,0,0,1,3.57-6.82.87.87,0,0,0-.24-.1l-.12,0-.23,0h-.13a1.67,1.67,0,0,0-.4.1l0,.07A1.64,1.64,0,0,1,226.21,905.19Z" transform="translate(464.97 80.37)"/><path class="cls-37" d="M227.15,906.62c0,.87-4.26,10.81-4.46,13.17s-.1,12.43-.2,21.37-.39,31.31-.39,38.89c0,6.53.07,24.13.09,28.87h1.56s-1.06-36.16-.8-50.57.4-36,1.06-39.09,3.64-10.86,4.17-13.42a1.44,1.44,0,0,0-1.85-.91A2.88,2.88,0,0,1,227.15,906.62Z" transform="translate(464.97 80.37)"/><ellipse class="cls-38" cx="652.41" cy="1022.96" rx="1.54" ry="2.55"/><path class="cls-38" d="M152.89,945.51l47.1-.74s1.48,34.55-25.48,33.67C151.7,977.69,152.89,945.51,152.89,945.51Z" transform="translate(464.97 80.37)"/><path class="cls-39" d="M176.64,948.91a19.26,19.26,0,0,1,19.28,16.52c4.75-9.56,4.26-21,4.26-21l-47.29,1.12s-.22,11.26,4.39,20.7A19.22,19.22,0,0,1,176.64,948.91Z" transform="translate(464.97 80.37)"/><path class="cls-40" d="M174.47,976.86c-12,0-17.47-8.85-19.94-17.39,2.24,8.83,7.53,18.64,20,19,15.41.5,21.52-10.62,23.94-20.24C195.73,967.25,189.36,976.86,174.47,976.86Z" transform="translate(464.97 80.37)"/><path class="cls-41" d="M200.2,944.52c0,1.1-10.59,2.17-23.65,2.4s-23.66-.47-23.66-1.56,10.59-2.18,23.66-2.41S200.2,943.42,200.2,944.52Z" transform="translate(464.97 80.37)"/><path class="cls-42" d="M187,943l.54,0c-3.28-.08-7-.1-10.95,0-13.07.23-23.66,1.31-23.66,2.41,0,.72,4.59,1.27,11.44,1.5C167.28,945,176.29,943.4,187,943Z" transform="translate(464.97 80.37)"/><path class="cls-34" d="M164.49,945.53h0a.82.82,0,0,1-.68-.91c0-1.3.84-31.82,12-33,.4-.08,2.74-.34,5.45,3.25a1.05,1.05,0,0,1,0,1.25.61.61,0,0,1-1,0c-2.34-3.09-4.13-2.73-4.21-2.72l-.08,0c-10,1-10.74,31-10.75,31.32A.8.8,0,0,1,164.49,945.53Z" transform="translate(464.97 80.37)"/><path class="cls-41" d="M168.85,954.39c1,1.34.17,4.38-1.86,6.78s-4.51,3.26-5.52,1.91-.17-4.38,1.86-6.78S167.84,953,168.85,954.39Z" transform="translate(464.97 80.37)"/><path class="cls-41" d="M161.15,965c.69-.21,1.43.52,1.65,1.62s-.15,2.16-.84,2.37-1.44-.52-1.66-1.62S160.46,965.17,161.15,965Z" transform="translate(464.97 80.37)"/><path class="cls-39" d="M166.08,946.2c0,1.4-.69,2.54-1.54,2.54S163,947.6,163,946.2s.69-2.55,1.53-2.55S166.08,944.79,166.08,946.2Z" transform="translate(464.97 80.37)"/><path class="cls-43" d="M168.56,984.77c.27-1.51,2.33-3.68,2.33-3.73-.19-1.84,3.18-3.6-.5-5.65-1.34-.74-2.43-1.55-2.53-3.23s1.44-4.22,1.19-5.34a1.66,1.66,0,0,1,.7,1.18c.2.93.05,2.3.64,2.17s.75-1.11.65-1.86a9.51,9.51,0,0,1-.32-2c0-.84.57-.81.66-1.58.27-2.08-1.92-2.29,3.85-8.2a10.26,10.26,0,0,0,2-3.95c1.36,4.2-.81,4.71-.91,7.4-.08,1.86,1.38,2.33,1.63,3.44s-.44,2.21-.2,3,2.43,1,2.85,2.39c.52-2.06,2.24-2.33,2.56-3.33.07,2.46.58,1.09.15,4.35-.26,1.91,2.05,4.6,2.15,7.46l-.89,13.26L168,992.91Z" transform="translate(464.97 80.37)"/><path class="cls-43" d="M180,990.21a5.34,5.34,0,0,1,.08-3.88c.87-2,1.26-3.33,1.83-3.83s1.81-.62,2.31-1.83.77-3.29,1.31-4.35,2.48-1.43,2.9-2.76a3.57,3.57,0,0,1,0,1.74,2.35,2.35,0,0,0,.27,1.92c.25.41.8.59,1,1.59a6.31,6.31,0,0,1,0,2.3,3.26,3.26,0,0,0,.92-1.43,7.87,7.87,0,0,1,.12,2.2c-.18,1.49,1.71,3.26.45,5.94C190.49,989.29,180,990.21,180,990.21Z" transform="translate(464.97 80.37)"/><path class="cls-43" d="M160.43,988.33c-.07-1.16-1.45-2.07-1.32-4.47A11.34,11.34,0,0,1,161,979s0,1,.59,1.16,1.85-1.18,2.65-3.56c.41-1.23-.14-3,1-4.39,0,0,.2,2.32,1.52,3.23,1.06.74,2.15,1.29,2.54,3.15s-2.23,4-2.13,4.72,2.38.31,2.93,2.92-1.49,3.73-1.24,5.47Z" transform="translate(464.97 80.37)"/><path class="cls-44" d="M162.21,989.18c-.1-1.43-1.93-2.11-1.53-3.79,0,0,.44,1.18,1.34.81s.54-2,2.08-3.35a2.89,2.89,0,0,0-.25,2.61c.43,1,1.88.12,3.22,1s2.18,4.35,2.18,4.35-.23-3.54,1.42-5.28c1.4-1.47,1.76-.38,3.14-1.24a3.15,3.15,0,0,0,1.24-2.74,1.61,1.61,0,0,1,.55,1.37,6.18,6.18,0,0,0,.94-4.16c-.35-2.36-1.54-2.86-2.08-3.86a.76.76,0,0,0,.59.07c.25-.13.15-2.24-.69-3.23a5,5,0,0,1-1.39-2.61s.6.68,1.19.62-1-1.8-.59-4.23c0,0,.44,1.93.94,2.12s.54-.75,1-1.43c0,0-.5,2.54.44,3.41s1.44-.12,2.33,1.12.2,2.11.45,3.92a4.1,4.1,0,0,0,.94,2.42,7.35,7.35,0,0,1,1.19-3,3.75,3.75,0,0,0,.25,2.42c.6.87,2.13-1,2.13-1a5.09,5.09,0,0,1-.26,4.39c-1.13,2.15-1.72,4.05-1,5.79a9.5,9.5,0,0,1,1.58-3.89c1.26-1.66,2.71-1.9,3-3.73.2,1.83,1.59,1.9,1.52,4.48a5.46,5.46,0,0,1-2.26,3.91,5.68,5.68,0,0,1,2.2-.68,2,2,0,0,0,1.85-1.91s1.19,3.4-1.13,4.52L169,992.48Z" transform="translate(464.97 80.37)"/><path class="cls-45" d="M190.74,981.88a7.87,7.87,0,0,0-.12-2.2,3.26,3.26,0,0,1-.92,1.43,6.31,6.31,0,0,0,0-2.3c-.25-1-.8-1.18-1-1.59a2.35,2.35,0,0,1-.27-1.92,3.57,3.57,0,0,0,0-1.74c-.42,1.33-2.35,1.71-2.9,2.76l-.12.29c-.4-2.59-2.32-5-2.08-6.75.43-3.26-.08-1.89-.15-4.35-.32,1-2,1.27-2.56,3.33-.42-1.43-2.6-1.59-2.85-2.39s.45-1.9.2-3-1.71-1.58-1.63-3.44c.1-2.69,2.27-3.2.91-7.4a10.26,10.26,0,0,1-2,3.95c-5.77,5.91-3.58,6.12-3.85,8.2-.09.77-.64.74-.66,1.58a9.51,9.51,0,0,0,.32,2c.1.75,0,1.74-.65,1.86s-.44-1.24-.64-2.17a1.66,1.66,0,0,0-.7-1.18c.25,1.12-1.28,3.66-1.19,5.34s1.19,2.49,2.53,3.23c3.68,2.05.31,3.81.5,5.65a14.08,14.08,0,0,0-2.16,3.16c-.76-.48-1.55-.52-1.61-.92-.1-.68,2.53-2.86,2.13-4.72s-1.48-2.41-2.54-3.15c-1.32-.91-1.52-3.23-1.52-3.23-1.13,1.41-.58,3.16-1,4.39-.8,2.38-1.94,3.76-2.65,3.56S161,979,161,979a11.34,11.34,0,0,0-1.85,4.89c-.11,2,.83,3,1.18,3.92-.47-1.88-.85-2.23-.85-3.59a7.33,7.33,0,0,1,1.12-3.23s-.2,2.3.93,2.24c1.45-.08,3.7-3.4,3.7-4.89a7.39,7.39,0,0,1,.39-2.48s.27,2,.86,2.32c.86.49,1.85-1.08,2.05.74.25,2.31-3.37,3.15-3.17,4.89s3,1.65,3.64,4.22c0,0-.23-3.8,1.65-5.46,2.3-2,4.1-1.58,4.1-4.48,0-2.32-3.44-3-3.51-4.88,0,0,1.16.54,1.59,0,1.19-1.49-1.26-3.4-1.26-5.22s1.13-.33,1.19-1.74-2.91-5.39,2.51-7.7c0,0-1.52,3.06-.52,5,.63,1.22,2-.42,2.38.58s-.86,2.56-.53,3.72,1.78-.41,2.71.25,1.38,2.82,1.32,4.23c0,0,.66-3,2-4.31a15,15,0,0,0-.4,2.81c0,1.16,1.19,1.41,2,3.32s-.26,5.8-.26,5.8a9.55,9.55,0,0,1,2-2.9,14.15,14.15,0,0,1,1.58-1.16,6,6,0,0,0,.33,2.56,7.83,7.83,0,0,1,.6,5.31,3.21,3.21,0,0,0,1.39-1.16,7.34,7.34,0,0,1,1.12,3.31,6.58,6.58,0,0,1-.44,2.45,1.35,1.35,0,0,0,.6-.48C192.45,985.14,190.56,983.37,190.74,981.88Z" transform="translate(464.97 80.37)"/><path class="cls-45" d="M157.7,982a3.35,3.35,0,0,0,.3-3.11c-.5-.93-1.14-2-1.14-2a5.43,5.43,0,0,0-.4,2.86C156.76,981,157.6,981.36,157.7,982Z" transform="translate(464.97 80.37)"/><path class="cls-45" d="M159.19,978.19c-.35-1.8.2-4.54,1.54-5.59a3.36,3.36,0,0,0,1.43-2.05s.6,3-.19,4.72S159.44,977.44,159.19,978.19Z" transform="translate(464.97 80.37)"/><path class="cls-45" d="M190.5,976.82a2.61,2.61,0,0,1-.3-2.4,3.3,3.3,0,0,1,1.62-1.78,4.37,4.37,0,0,0-.29,1.57C191.56,975,191.76,976.49,190.5,976.82Z" transform="translate(464.97 80.37)"/><path class="cls-45" d="M186.07,973.63s2-1.12,1.66-3.06-.8-2.94-.7-4.27a8.19,8.19,0,0,1-.82,2c-.43.58-1.26,1.86-1,2.73S186.24,973,186.07,973.63Z" transform="translate(464.97 80.37)"/><path class="cls-45" d="M179.76,961.46c.13,1,1.19,1.82,1.32,2.81a2.52,2.52,0,0,1-.26,1.62s-.5-.58-1.16-1.29S179.76,961.46,179.76,961.46Z" transform="translate(464.97 80.37)"/><path class="cls-45" d="M179.1,960.67a2.67,2.67,0,0,1-.79-2.57c.43-1.49,1.58-2.36,1.68-3.93a6.29,6.29,0,0,1,.93,3.52C180.69,959.34,179.33,959.51,179.1,960.67Z" transform="translate(464.97 80.37)"/><path class="cls-35" d="M191.89,987.42a4.11,4.11,0,0,1,1.59,2.07l1.71-.08a7,7,0,0,1,1.39,3.48l-19.76,4.47-8.66-5.63a84.92,84.92,0,0,0,11.37-1.82C185.61,988.5,191.89,987.42,191.89,987.42Z" transform="translate(464.97 80.37)"/><path class="cls-36" d="M169.75,992c4.23-.89,6.41-.31,11-1.55,5-1.37,8-2.3,11.65-2.69a2.11,2.11,0,0,0-.48-.38s-6.28,1.08-12.36,2.49c-3.48.8-9.27,1.56-11.37,1.82Z" transform="translate(464.97 80.37)"/><path class="cls-37" d="M176.75,993.47l5.55,2.65,14.28-3.23a6.08,6.08,0,0,0-.64-2.24,48,48,0,0,0-7.75,1.08C184.16,992.72,178.67,993.63,176.75,993.47Z" transform="translate(464.97 80.37)"/><path class="cls-37" d="M189.25,990.16c1.58-.34,4.23-.67,4.23-.67a6.78,6.78,0,0,0-.54-1c-.78.2-2.16.56-3.63,1-2.24.67-5.35,1.41-5.29,1.74S187.66,990.49,189.25,990.16Z" transform="translate(464.97 80.37)"/><path class="cls-37" d="M175.05,992.41a22.79,22.79,0,0,0,8.52-1.73c.14-.06.08-.31-.06-.27a73.22,73.22,0,0,1-8.46,1.8c-.1,0-.11.2,0,.2Z" transform="translate(464.97 80.37)"/><path class="cls-35" d="M150.25,999.1a15.81,15.81,0,0,1,1.45-8.94l2.71-.25-1.85-1.49a6.15,6.15,0,0,1,2.65-3.15,14.07,14.07,0,0,0,5.55,3.06c3.57,1.08,13.48,5.64,18.44,6.13S202.73,991,202.73,991a13.92,13.92,0,0,1,2.38,4.89c1,3.31.2,8.7.2,8.7L191,1007.88l-25.25-.25Z" transform="translate(464.97 80.37)"/><path class="cls-36" d="M203.25,991.7a6.8,6.8,0,0,0-.52-.72s-18.57,4-23.53,3.48-14.87-5.05-18.44-6.13a14.07,14.07,0,0,1-5.55-3.06,7.22,7.22,0,0,0-1.36,1.1c.63.72,1.8,1.14,3.87,1.63a47.46,47.46,0,0,1,11.17,4.06c4.69,2.4,6.08,3.23,10.51,3.73s9.45-1.58,13.48-2.49C196,992.59,201.94,992.23,203.25,991.7Z" transform="translate(464.97 80.37)"/><path class="cls-37" d="M205.61,1000.05c0-.61,0-1.24-.09-1.86-4.79.08-13.64.94-18.26,1.24-5,.33-12.42,1-16,.5s-8-2.73-11.57-3.56c-3-.7-6.71-.81-9.46-1.23a14.9,14.9,0,0,0,0,4l15.53,8.53,25.25.25,11.49-2.67C203.56,1003.52,204.76,1001.49,205.61,1000.05Z" transform="translate(464.97 80.37)"/><path class="cls-37" d="M162.61,992.39c.13-.25-3.7-1.9-5-2.57a51.55,51.55,0,0,0-4.9-1.85,4.26,4.26,0,0,0-.19.45l1.85,1.49-2.71.25,4.57.82C158.05,991.32,162.48,992.64,162.61,992.39Z" transform="translate(464.97 80.37)"/><path class="cls-37" d="M202.93,995.87c.06.5,2.18,0,2.18,0-.11-.35-.22-.67-.33-1C204,995.11,202.88,995.53,202.93,995.87Z" transform="translate(464.97 80.37)"/><path class="cls-37" d="M170.28,997c-6.31-1.51-13.06-4.91-19.57-4.26l-.09.35c6.78.25,12.94,3.73,19.63,4.19C170.38,997.3,170.41,997,170.28,997Z" transform="translate(464.97 80.37)"/><path class="cls-37" d="M179.56,996.79a72.61,72.61,0,0,1-11.41-1.56c-.07,0-.1.11,0,.14A26.32,26.32,0,0,0,179.56,997,.11.11,0,0,0,179.56,996.79Z" transform="translate(464.97 80.37)"/><path class="cls-37" d="M183.36,996.59c6.93.69,13.84-2.14,20.68-3.46a3.78,3.78,0,0,0-.17-.35c-6.88.83-13.49,3.66-20.51,3.53C183.22,996.31,183.22,996.58,183.36,996.59Z" transform="translate(464.97 80.37)"/><path class="cls-37" d="M171.72,994.55a21.18,21.18,0,0,1-6.07-2.52,16.19,16.19,0,0,0-4.48-2c-.12,0-.17.19,0,.23,3.64,1.32,6.78,3.86,10.58,4.48C171.78,994.74,171.8,994.57,171.72,994.55Z" transform="translate(464.97 80.37)"/><path class="cls-37" d="M199.93,997.11c-2.69.23-5.6,0-8.24.71-.05,0,0,.13,0,.13,2.69-.31,5.61.19,8.24-.62C200.05,997.3,200,997.1,199.93,997.11Z" transform="translate(464.97 80.37)"/><polygon class="cls-40" points="604.18 1089.29 608.41 1081.13 615.15 1079.64 616.21 1077.65 623.61 1076.82 628.64 1082.79 631.94 1083.12 635.11 1089.29 604.18 1089.29"/><polygon class="cls-40" points="633.92 1089.29 634.52 1081.54 641.36 1073.22 649.79 1075.21 656.43 1080.67 657.52 1089.29 633.92 1089.29"/><polygon class="cls-40" points="655.74 1089.29 659.4 1080.43 664.56 1076.08 673.28 1078.44 674.47 1082.29 677.35 1083.41 680.72 1089.29 655.74 1089.29"/><polygon class="cls-46" points="608.41 1081.13 615.15 1079.64 616.21 1077.65 623.08 1078.07 625 1085.52 629.83 1085.27 631.74 1084.19 634.06 1087.09 635.11 1089.29 604.18 1089.29 608.41 1081.13"/><polygon class="cls-46" points="633.92 1089.29 634.52 1081.54 637.1 1080.96 642.85 1076.49 650.12 1077.98 656.43 1080.67 657.52 1089.29 633.92 1089.29"/><polygon class="cls-46" points="657.06 1085.93 660.03 1084.94 660.82 1081.79 668.23 1080.22 673.28 1078.44 674.47 1082.29 677.35 1083.41 680.72 1089.29 656.59 1089.29 657.06 1085.93"/><polygon class="cls-47" points="632.4 1088.09 634.06 1087.09 635.11 1089.29 604.18 1089.29 606.27 1085.31 609.87 1083.66 612.91 1080.14 615.15 1079.64 612.05 1084.77 618.06 1088.34 625 1085.52 629.83 1085.27 632.4 1088.09"/><polygon class="cls-47" points="633.76 1089.29 634.52 1081.54 637.1 1080.96 638.95 1085.68 647.27 1087.34 651.17 1084.19 650.12 1077.98 652.24 1078.89 653.75 1083.2 656.91 1084.45 657.52 1089.29 633.76 1089.29"/><polygon class="cls-47" points="656.59 1089.29 657.06 1085.93 660.03 1084.94 663.8 1088.07 665.98 1085.89 666.05 1080.67 668.23 1080.22 670.28 1082.12 674.17 1081.39 674.47 1082.29 677.35 1083.41 680.72 1089.29 656.59 1089.29"/><polygon class="cls-46" points="680.2 1088.41 671.53 1087.42 674.11 1084.53 677.35 1083.41 680.2 1088.41"/><path class="cls-48" d="M175.7,939.92c-3.62-3.11,4-7.08,4-9.69s-13.79-6-13.68-13.17,10.55-11.66,10.73-14.29c.13-1.78-4.8-3.23-4.75-6.33,0-2.12,3.4-2.12,3.4-2.12s-2.33.71-2.35,2c0,1.74,5.86,1.87,7.57,6.46s-5.13,11.06-5.18,14.41,10.46,7.71,10.32,12.06C185.59,935.2,175.18,935.2,175.7,939.92Z" transform="translate(464.97 80.37)"/><path class="cls-48" d="M176.3,914.08s-.86,3.44,4,7.41,5.53,8,4.9,9.9a5.27,5.27,0,0,0,.56-4c-.62-2.36-2.77-3.68-5.35-6.42a11.41,11.41,0,0,1-2.87-9Z" transform="translate(464.97 80.37)"/><path class="cls-48" d="M166.91,912.21a13.2,13.2,0,0,1,4.94-5.34c2.91-1.94,3.65-3.14,3.78-4.16-.34.77-1.29,2.11-3.86,3.23C166.64,908.18,166.91,912.21,166.91,912.21Z" transform="translate(464.97 80.37)"/><path class="cls-48" d="M176.44,898.67a3.25,3.25,0,0,1-2.63-2.69,3.16,3.16,0,0,1,1.46-2.61c1.23-.94-.67-1.7-.58-3.31.35,1.28,3,2.14,2,3.64-.44.62-1.35,1.62-1.32,2.36A4.16,4.16,0,0,0,176.44,898.67Z" transform="translate(464.97 80.37)"/><path class="cls-49" d="M169.35,912.24l-.3.51a14.36,14.36,0,0,0-.75,1.39,4.93,4.93,0,0,0-.51,2.14,4.12,4.12,0,0,0,.2,1.19,5.18,5.18,0,0,0,.52,1.12,10.78,10.78,0,0,0,1.5,1.87,12.28,12.28,0,0,0,1.53,1.38,13.94,13.94,0,0,0,1.17.83l.46.29a7,7,0,0,1-1.78-.77,9.83,9.83,0,0,1-3.33-3.18,5.9,5.9,0,0,1-.58-1.3,4.49,4.49,0,0,1-.19-1.45,5,5,0,0,1,.74-2.33,9.15,9.15,0,0,1,.93-1.27C169.21,912.38,169.35,912.24,169.35,912.24Z" transform="translate(464.97 80.37)"/><path class="cls-49" d="M170.08,918.17l.49.52c.31.31.78.74,1.35,1.22s1.27,1,2,1.51,1.59,1,2.42,1.53a23.82,23.82,0,0,1,4.45,3.2,5.07,5.07,0,0,1,1.05,1.69,2.78,2.78,0,0,1,.16.56l0,.21a5.53,5.53,0,0,0-.3-.7,5.18,5.18,0,0,0-1.16-1.44,12.64,12.64,0,0,0-2.05-1.41l-2.45-1.47c-.83-.52-1.66-1.06-2.41-1.63a18.53,18.53,0,0,1-2-1.73,13.75,13.75,0,0,1-1.24-1.45Z" transform="translate(464.97 80.37)"/><path class="cls-49" d="M174.42,918.54a2.76,2.76,0,0,1-.21-.45,4.49,4.49,0,0,1-.26-1.33,5.88,5.88,0,0,1,.21-1.94,8.75,8.75,0,0,1,.35-1q.23-.49.48-1a34.11,34.11,0,0,1,2.14-3.05c.29-.41.53-.75.68-1l.25-.4a8.69,8.69,0,0,1-.67,1.66c-.48,1-1.28,2.05-1.94,3.21-.17.29-.32.58-.46.88a9.37,9.37,0,0,0-.36.9,7,7,0,0,0-.36,1.73,5.06,5.06,0,0,0,0,1.29A5,5,0,0,0,174.42,918.54Z" transform="translate(464.97 80.37)"/><path class="cls-49" d="M177.18,900.56a1.8,1.8,0,0,1,.25.27,3.1,3.1,0,0,1,.51.9,4.65,4.65,0,0,1,.29,1.55,5.68,5.68,0,0,1-.24,1.81c-.09.26-.21.57-.33.83a7.15,7.15,0,0,1-.42.72,6.19,6.19,0,0,1-.91,1.05,4.93,4.93,0,0,1-1,.75l.23-.29c.15-.18.35-.45.59-.76s.48-.71.73-1.14c.12-.21.22-.44.34-.68a6.54,6.54,0,0,0,.27-.75,5.86,5.86,0,0,0,.27-1.55,6.18,6.18,0,0,0-.09-1.4,4.46,4.46,0,0,0-.29-1C177.25,900.69,177.18,900.56,177.18,900.56Z" transform="translate(464.97 80.37)"/><path class="cls-49" d="M178,935s.55-.42,1.38-1c.42-.28.92-.6,1.45-.92s1.12-.64,1.63-1a3.62,3.62,0,0,0,1.22-1.47,2.76,2.76,0,0,0,.17-1.75,4.53,4.53,0,0,0-.52-1.21l-.27-.44a3.29,3.29,0,0,1,.35.34,3.73,3.73,0,0,1,.74,1.16,3,3,0,0,1,.19,1,3.09,3.09,0,0,1-.22,1.15,3.85,3.85,0,0,1-1.37,1.8,11.8,11.8,0,0,1-1.72,1c-.55.27-1.07.52-1.52.72C178.59,934.8,178,935,178,935Z" transform="translate(464.97 80.37)"/><ellipse class="cls-20" cx="863.55" cy="1073.8" rx="156.75" ry="9.41"/><path class="cls-50" d="M323.73,842.28S355,850.14,384,850.14s50.51-8.53,50.51-8.53L524,993.77H397.6L346.39,904Z" transform="translate(464.97 80.37)"/><path class="cls-51" d="M448.82,956.51C390.16,962.77,363,922.4,363,922.4l.79,12.18,33.77,59.19H524l-38.89-66.08S482.49,952.92,448.82,956.51Z" transform="translate(464.97 80.37)"/><path class="cls-51" d="M323.73,842.28,346.39,904l51.21,89.77h35.82C389.65,959.74,358,884,353.91,847.92c-7.28-.95-14.71-2.34-20.38-3.49C327.7,843.23,323.73,842.28,323.73,842.28Z" transform="translate(464.97 80.37)"/><path class="cls-52" d="M396.08,966.5A73,73,0,0,0,435,982S407.9,991.41,396.08,966.5Z" transform="translate(464.97 80.37)"/><path class="cls-52" d="M499,958.6s-1.13,17.66-22.24,23.95C476.78,982.55,505.14,983.67,499,958.6Z" transform="translate(464.97 80.37)"/><polygon class="cls-38" points="858.99 1067.86 862.57 1074.14 989 1074.14 985.31 1067.86 858.99 1067.86"/><path class="cls-38" d="M537.61,989.47a.46.46,0,0,1-.38-.22L434.11,842a.75.75,0,0,1,.05-.9.44.44,0,0,1,.72,0L538,988.41a.75.75,0,0,1,0,.9A.45.45,0,0,1,537.61,989.47Z" transform="translate(464.97 80.37)"/><path class="cls-45" d="M433.84,841.85A152.65,152.65,0,0,1,384,850.14c-29,0-60.26-7.86-60.26-7.86l.16.44C374,895,454.19,880.21,433.84,841.85Z" transform="translate(464.97 80.37)"/><polygon class="cls-38" points="900.36 974.5 855.24 974.5 879.28 1017.92 924.41 1017.92 900.36 974.5"/><polygon class="cls-42" points="898.89 977.53 860.07 977.53 880.75 1014.88 919.57 1014.88 898.89 977.53"/><polygon class="cls-43" points="788.7 922.65 868.3 1074.14 721.99 1074.14 788.7 922.65"/><path class="cls-29" d="M357.47,906.48l-33.74-64.2L276.8,948.87c14.88,4.09,33.62.63,51.33-11.1A93.44,93.44,0,0,0,357.47,906.48Z" transform="translate(464.97 80.37)"/><path class="cls-53" d="M323.73,842.28a90.62,90.62,0,0,1,.5,15.64c-1.51,27.48-8.59,89.8-33.36,135.85h-4.66l-12.89-7.07S311.73,915.67,323.73,842.28Z" transform="translate(464.97 80.37)"/><path class="cls-53" d="M323.73,842.28a120.83,120.83,0,0,0,.5,15.83C327,886.82,336.4,953,360.89,993.77h7.26l14-8.42S347.19,929.47,323.73,842.28Z" transform="translate(464.97 80.37)"/><polygon class="cls-42" points="724.75 1067.87 721.99 1074.14 868.41 1074.14 865.05 1067.87 724.75 1067.87"/><path class="cls-38" d="M274.74,987.5l11.34,6.27h4.81c1.11-2.06,2.17-4.16,3.2-6.27Z" transform="translate(464.97 80.37)"/><path class="cls-38" d="M357.36,987.5c1.15,2.14,2.32,4.24,3.53,6.27h7.26l10.4-6.27Z" transform="translate(464.97 80.37)"/><polygon class="cls-38" points="755.84 1074.14 826.04 1074.14 789.19 938.29 755.84 1074.14"/><path class="cls-39" d="M345.31,993.77h15.76L324.23,857.92l-14.42,58.69C325.25,927.79,343.82,960.46,345.31,993.77Z" transform="translate(464.97 80.37)"/><rect class="cls-35" x="787.94" y="936.29" width="2.87" height="137.85"/><path class="cls-54" d="M323,855.91V993.77h.62c-.35-34.85-.23-84.49,0-137.86Z" transform="translate(464.97 80.37)"/><path class="cls-37" d="M324.85,855.91c-.4,47.34-.43,93.42,0,137.86h1V855.91Z" transform="translate(464.97 80.37)"/><path class="cls-35" d="M543.91,993.77h-6.26l-.9-9s4.51-1.8,8.06,0Z" transform="translate(464.97 80.37)"/><path class="cls-54" d="M536.75,984.79l.9,9h1a22.66,22.66,0,0,0-.84-9.31A9.77,9.77,0,0,0,536.75,984.79Z" transform="translate(464.97 80.37)"/><path class="cls-37" d="M540.28,984a7.91,7.91,0,0,1,2.85.76,25.4,25.4,0,0,0-.42,9h1.2l.9-9A8.55,8.55,0,0,0,540.28,984Z" transform="translate(464.97 80.37)"/><path class="cls-38" d="M537.28,991.6a.58.58,0,0,1-.51-.6.61.61,0,0,1,.48-.68,16.65,16.65,0,0,0,7.13-2.37.47.47,0,0,1,.68.3.72.72,0,0,1-.24.85,17.45,17.45,0,0,1-7.5,2.49Z" transform="translate(464.97 80.37)"/><path class="cls-38" d="M544.36,991.71h0a15.81,15.81,0,0,1-7.78-2.4.74.74,0,0,1-.25-.85.48.48,0,0,1,.68-.31,15.07,15.07,0,0,0,7.37,2.28.59.59,0,0,1,.5.66A.57.57,0,0,1,544.36,991.71Z" transform="translate(464.97 80.37)"/><path class="cls-38" d="M435.94,903.15a4.4,4.4,0,0,0,3-2.63l-3.58-6.4H390.27L396,904.33c5.79,1.3,12.23-3.41,20.23-4C423.3,899.72,430.72,904.5,435.94,903.15Z" transform="translate(464.97 80.37)"/><path class="cls-43" d="M391.37,883.73c6.81-1.47,19.81,2.94,23.44,2.94s13.56-3.33,17.95-3.43c5.16-.12,7,4.53,7.07,7.1s-.38,6.42-3.82,7.35c-5.44,1.47-17.57-1.23-21.87-1.11-3.07.09-14.51,4.41-20.81,2.09Z" transform="translate(464.97 80.37)"/><path class="cls-55" d="M437.13,896.08c-5.74,1.55-17.22-3.84-21.75-3.54-7,.47-15.66,6.36-22.21,4.89l.16,1.24c6.3,2.32,17.74-2,20.81-2.09,4.3-.12,16.43,2.58,21.87,1.11a4.6,4.6,0,0,0,3-2.61A4.8,4.8,0,0,1,437.13,896.08Z" transform="translate(464.97 80.37)"/><path class="cls-56" d="M397.34,889.36a2.63,2.63,0,0,0-.38-.92c-.07-.23-.16-.45-.25-.68-1.37-3.34-4.13-4.93-6.16-3.56s-2.58,5.19-1.21,8.53l0,.06H388s1.63,5.39,5.35,5.88S398.39,894,397.34,889.36Z" transform="translate(464.97 80.37)"/><path class="cls-34" d="M413.64,897.6a.42.42,0,0,1-.31-.15.68.68,0,0,1,0-.8,9.71,9.71,0,0,0,1.51-5.48,11.21,11.21,0,0,0-1.06-4.66.64.64,0,0,1,.13-.77.39.39,0,0,1,.62.16,12.34,12.34,0,0,1,1.2,5.29,10.88,10.88,0,0,1-1.76,6.25A.39.39,0,0,1,413.64,897.6Z" transform="translate(464.97 80.37)"/><path class="cls-34" d="M417.08,897.88a.37.37,0,0,1-.28-.13.66.66,0,0,1-.07-.78,8.72,8.72,0,0,0,.77-6,6,6,0,0,0-2.74-4.3.62.62,0,0,1-.24-.72.42.42,0,0,1,.58-.31,7,7,0,0,1,3.27,5.07,10,10,0,0,1-.94,7A.42.42,0,0,1,417.08,897.88Z" transform="translate(464.97 80.37)"/><path class="cls-53" d="M394.13,886.86a2.24,2.24,0,0,0-2.94-.28c-1.13.75-1.29,2.9-.79,4.46s1.63,2.39,2.88,1.9a.56.56,0,0,0,.27-.64c-.07-.27-.29-.42-.5-.34-1.2.47-1.73-.76-1.91-1.31-.36-1.12-.27-2.7.42-3.16a1.57,1.57,0,0,1,2.11.21c1.26,1.13,2.14,3.88,1.92,6a2.7,2.7,0,0,1-1.28,2.31c-1.26.59-3.63-.07-5-3.22h-.9c1.22,3.23,3.36,4.43,5,4.43a3,3,0,0,0,1.19-.24,3.66,3.66,0,0,0,1.8-3.15C396.64,891.33,395.63,888.2,394.13,886.86Z" transform="translate(464.97 80.37)"/><path class="cls-45" d="M397.82,885.08c-1.39,1.62,2.38,3.79,6.2,4.28s7.35-.24,7.64-1.22S398.87,883.85,397.82,885.08Z" transform="translate(464.97 80.37)"/><path class="cls-45" d="M421.4,886.91c-.29,1.72,5.25,2.21,10.41,1.1,3.14-.67,3.82-2.08,2.86-3.06s-4.49-.36-7.92.25S421.48,886.43,421.4,886.91Z" transform="translate(464.97 80.37)"/><path class="cls-41" d="M433.91,906.27c-4.92-.86-10.72-3.51-16.35-3.06-5.24.42-9.85,2.45-14.07,3.67l9,15.65C424.58,923,434.57,915.69,433.91,906.27Z" transform="translate(464.97 80.37)"/><path class="cls-57" d="M365,857.5A59,59,0,0,0,405.5,869c18.24-1.67,22.1-15.07,22.1-15.07A47.93,47.93,0,0,1,404,862.62,98.87,98.87,0,0,1,365,857.5Z" transform="translate(464.97 80.37)"/><path class="cls-57" d="M400.3,857.45c7,1.27,14.51-1.29,20.74-5.23.69-.44.08-1.72-.6-1.29-6.56,4.05-12.85,5.17-20.06,5.8-.31,0-.43.66-.08.72Z" transform="translate(464.97 80.37)"/><path class="cls-52" d="M411,963s21.91,20.18,52.52,14.58c23.14-4.23,27.06-26,27.06-26s-11.9,14.15-29.42,17A96.78,96.78,0,0,1,411,963Z" transform="translate(464.97 80.37)"/><polygon class="cls-50" points="784.44 967.42 793.74 967.42 788.7 942.51 784.44 967.42"/><path class="cls-45" d="M323.73,842.28v21.38c2.77,28.71,12.67,89.35,37.16,130.11,3.66-4.07,7.79-7.51,13.7-8.76C374.59,985,340.12,921.05,323.73,842.28Z" transform="translate(464.97 80.37)"/><path class="cls-45" d="M323.73,842.28a91.54,91.54,0,0,1,0,21.38c-1.5,27.48-8.09,84.06-32.86,130.11a37.15,37.15,0,0,0-14.33-8.53S312.81,918.92,323.73,842.28Z" transform="translate(464.97 80.37)"/><path class="cls-58" d="M309.69,947c9.68-32.9,13-64.73,14-83.29a91.54,91.54,0,0,0,0-21.38c-6,42.34-19.8,81.52-30.91,108.12A64.63,64.63,0,0,0,309.69,947Z" transform="translate(464.97 80.37)"/><path class="cls-58" d="M336.13,931.81a94.34,94.34,0,0,0,10.66-10.38,559,559,0,0,1-23.06-79.15v21.38A437.81,437.81,0,0,0,336.13,931.81Z" transform="translate(464.97 80.37)"/><path class="cls-56" d="M374.59,985S349,937.47,331.4,873.88c5.33,23.59,18.88,76.63,39.9,112.14A20.69,20.69,0,0,1,374.59,985Z" transform="translate(464.97 80.37)"/><path class="cls-56" d="M319,868.35c-14.11,65-42.48,116.89-42.48,116.89,1.12.36,2.23.78,3.34,1.25C285.18,975.66,308,926.84,319,868.35Z" transform="translate(464.97 80.37)"/><polygon class="cls-42" points="784.44 930.73 793.74 930.73 788.7 922.65 784.44 930.73"/><path class="cls-38" d="M246.91,988.57a.46.46,0,0,1-.29-.1.75.75,0,0,1-.14-.89l76.83-145.65a.44.44,0,0,1,.7-.18.74.74,0,0,1,.15.88L247.33,988.29A.5.5,0,0,1,246.91,988.57Z" transform="translate(464.97 80.37)"/><path class="cls-38" d="M414.8,989a.46.46,0,0,1-.4-.25L323.33,842.68a.76.76,0,0,1,.09-.9.45.45,0,0,1,.72.11L415.2,988a.77.77,0,0,1-.09.9A.43.43,0,0,1,414.8,989Z" transform="translate(464.97 80.37)"/><path class="cls-35" d="M415.33,993.77l-1.11-11.45s5.18-.22,8.18,1.8l-.8,9.65Z" transform="translate(464.97 80.37)"/><path class="cls-54" d="M415.15,982.32c-.57,0-.93,0-.93,0l1.11,11.45h.9a27.65,27.65,0,0,0-1.12-11.45Z" transform="translate(464.97 80.37)"/><path class="cls-37" d="M414.22,982.32v0a13,13,0,0,1,6.08,1.75,40.43,40.43,0,0,0-.58,9.65h1.88l.8-9.65C419.4,982.1,414.22,982.32,414.22,982.32Z" transform="translate(464.97 80.37)"/><path class="cls-35" d="M248.7,993.77l-.42-9s-4.26-1.8-7.84.22l1.7,8.76Z" transform="translate(464.97 80.37)"/><path class="cls-54" d="M240.44,985l1.7,8.76H243a21.24,21.24,0,0,0-1.71-9.15Z" transform="translate(464.97 80.37)"/><path class="cls-37" d="M248.29,984.79a10.59,10.59,0,0,0-5.6-.56,9.66,9.66,0,0,1,3.43.72,34.45,34.45,0,0,0,.38,8.82h2.2Z" transform="translate(464.97 80.37)"/><path class="cls-38" d="M416.78,988.12a15,15,0,0,1-2.41-.2.61.61,0,0,1-.44-.71.56.56,0,0,1,.57-.56,14.56,14.56,0,0,0,7.84-.91.49.49,0,0,1,.64.41.68.68,0,0,1-.33.81A15.55,15.55,0,0,1,416.78,988.12Z" transform="translate(464.97 80.37)"/><path class="cls-38" d="M421.91,991.83c-1,0-4.84-.14-7.55-2.11a.73.73,0,0,1-.18-.88.45.45,0,0,1,.69-.23c2.83,2.06,7.21,1.94,7.25,1.94.27,0,.52.26.53.62a.6.6,0,0,1-.5.66Z" transform="translate(464.97 80.37)"/><path class="cls-38" d="M414.8,992a.54.54,0,0,1-.49-.48.66.66,0,0,1,.36-.78l7.44-2.45a.51.51,0,0,1,.62.46.67.67,0,0,1-.36.78l-7.44,2.45Z" transform="translate(464.97 80.37)"/><path class="cls-38" d="M241.17,991.36a.52.52,0,0,1-.48-.42.71.71,0,0,1,.31-.82l7.27-3.21c.26-.12.55.05.65.39a.71.71,0,0,1-.31.82l-7.27,3.21A.47.47,0,0,1,241.17,991.36Z" transform="translate(464.97 80.37)"/><path class="cls-38" d="M248.49,991.07h-.1l-7.57-2a.65.65,0,0,1-.4-.76.53.53,0,0,1,.61-.49l7.57,2a.66.66,0,0,1,.39.77A.54.54,0,0,1,248.49,991.07Z" transform="translate(464.97 80.37)"/><path class="cls-20" d="M430.4,1007.19c0,2,18,3.56,40.21,3.56s40.22-1.59,40.22-3.56-18-3.56-40.22-3.56S430.4,1005.23,430.4,1007.19Z" transform="translate(464.97 80.37)"/><g class="cls-59"><ellipse class="cls-23" cx="905.28" cy="1062.91" rx="24.32" ry="30.47"/></g><rect class="cls-38" x="897.13" y="1075.62" width="17.36" height="9.08"/><rect class="cls-60" x="898.49" y="1076.57" width="4.42" height="7.6"/><polygon class="cls-39" points="905.8 1075.62 897.13 1075.62 897.13 1077.17 905.8 1077.17 905.8 1084.54 914.48 1084.54 914.48 1077.17 914.48 1075.62 905.8 1075.62"/><path class="cls-38" d="M896.45,1083.91h18.71a1,1,0,0,1,1,1v2.9a0,0,0,0,1,0,0H895.44a0,0,0,0,1,0,0v-2.9A1,1,0,0,1,896.45,1083.91Z"/><path class="cls-61" d="M443.22,999.88a2.19,2.19,0,1,1-2.14-2.68A2.46,2.46,0,0,1,443.22,999.88Z" transform="translate(464.97 80.37)"/><rect class="cls-48" x="897.52" y="1052.7" width="16.57" height="20.12"/><rect class="cls-62" x="899.87" y="1053.1" width="4.17" height="19.32"/><rect class="cls-63" x="907.7" y="1053.1" width="4.93" height="19.32"/><rect class="cls-63" x="897.84" y="1053.1" width="0.63" height="19.32"/><rect class="cls-63" x="913.2" y="1053.1" width="0.63" height="19.32"/><rect class="cls-38" x="897.24" y="1052.07" width="0.6" height="20.59"/><rect class="cls-38" x="913.77" y="1052.07" width="0.6" height="20.59"/><path class="cls-63" d="M449.4,980.65s-1.38-4.12-8.52-4.12-8.61,4.12-8.61,4.12v-8H449.4Z" transform="translate(464.97 80.37)"/><path class="cls-38" d="M448.42,965.16H433.25l.18-2.11c.21-2.63,1.95-4.64,3.89-4.64h7c1.95,0,3.69,2,3.9,4.64Z" transform="translate(464.97 80.37)"/><path class="cls-39" d="M450.15,963.55a.51.51,0,0,1-.45-.56c0-11.43-.77-15.75-8.95-15.75S432,953.19,432,963a.46.46,0,1,1-.9,0c0-9.89.69-16.88,9.67-16.88s9.85,5.14,9.85,16.88A.51.51,0,0,1,450.15,963.55Z" transform="translate(464.97 80.37)"/><rect class="cls-38" x="895.44" y="1045.47" width="20.73" height="3.91"/><rect class="cls-38" x="895.44" y="1072.18" width="20.73" height="3.91" rx="1.07"/><rect class="cls-60" x="897.77" y="1072.18" width="5.73" height="3.8"/><rect class="cls-60" x="897.77" y="1084.12" width="5.73" height="3.48"/><path class="cls-38" d="M454.07,973.06c0,.4-26.46.4-26.46,0l2.86-4.12H451.2Z" transform="translate(464.97 80.37)"/><path class="cls-39" d="M448.25,963.05c-.21-2.63-1.95-4.64-3.9-4.64h-1.94a5.55,5.55,0,0,1,1.79,3.79l.18,2.12H433.32l-.07.84h15.17Z" transform="translate(464.97 80.37)"/><polygon class="cls-39" points="916.17 1049.31 905.85 1049.31 907.85 1053.43 919.03 1053.43 916.17 1049.31"/><polygon class="cls-39" points="905.85 1045.47 905.85 1048.35 895.44 1048.35 895.44 1049.38 905.85 1049.38 916.17 1049.38 916.17 1048.35 916.17 1045.47 905.85 1045.47"/><path class="cls-41" d="M434.14,963.58h4.33s.19-4.32-1.58-4.32S434.14,961.88,434.14,963.58Z" transform="translate(464.97 80.37)"/><path class="cls-41" d="M429.9,972.09h8.31a4,4,0,0,0-3.76-2.57A4.85,4.85,0,0,0,429.9,972.09Z" transform="translate(464.97 80.37)"/><path class="cls-38" d="M896,1042.8h1.07a.55.55,0,0,1,.55.55v3.41a0,0,0,0,1,0,0h-2.18a0,0,0,0,1,0,0v-3.41A.55.55,0,0,1,896,1042.8Z"/><path class="cls-39" d="M914.54,1042.8h1.07a.55.55,0,0,1,.55.55v3.41a0,0,0,0,1,0,0H914a0,0,0,0,1,0,0v-3.41A.55.55,0,0,1,914.54,1042.8Z"/><path class="cls-41" d="M436,966.57c0,.57-1.66.69-2.94.69s-1.77-.31-1.77-.69.3-.69,1.77-.69S436,966,436,966.57Z" transform="translate(464.97 80.37)"/><path class="cls-41" d="M438.25,966.57c0,.3-.47.48-.91.48s-.74-.22-.74-.48.22-.47.74-.47S438.25,966.28,438.25,966.57Z" transform="translate(464.97 80.37)"/><path class="cls-39" d="M453.71,972.77H428a.41.41,0,0,0-.36.45h0a.41.41,0,0,0,.36.45h25.74a.41.41,0,0,0,.36-.45h0A.41.41,0,0,0,453.71,972.77Z" transform="translate(464.97 80.37)"/><path class="cls-41" d="M450.13,991.81H431.55a1.24,1.24,0,0,0-1.08,1.35v.55a1.23,1.23,0,0,1,1.08-1.34h18.58a1.23,1.23,0,0,1,1.07,1.34v-.55A1.24,1.24,0,0,0,450.13,991.81Z" transform="translate(464.97 80.37)"/><path class="cls-39" d="M450.13,991.81h-6.61a1.69,1.69,0,0,1,.1.56v1.21a1.23,1.23,0,0,1-1.08,1.35h-12a1.1,1.1,0,0,0,1,.79h18.58a1.23,1.23,0,0,0,1.07-1.35v-1.21A1.24,1.24,0,0,0,450.13,991.81Z" transform="translate(464.97 80.37)"/><path class="cls-41" d="M450.19,1003.53H431.48a1.17,1.17,0,0,0-1,1.27v.53a1.17,1.17,0,0,1,1-1.27h18.71a1.16,1.16,0,0,1,1,1.27v-.53A1.16,1.16,0,0,0,450.19,1003.53Z" transform="translate(464.97 80.37)"/><path class="cls-39" d="M450.19,1003.53h-9.48a1.16,1.16,0,0,1,1,1.27v1.9H430.47v.74H451.2v-2.64A1.16,1.16,0,0,0,450.19,1003.53Z" transform="translate(464.97 80.37)"/><ellipse class="cls-64" cx="905.78" cy="1079.92" rx="1.88" ry="2.35"/><ellipse class="cls-65" cx="905.78" cy="1079.92" rx="1.37" ry="1.72"/><path class="cls-66" d="M439.56,999.68a1.58,1.58,0,0,1,1.38-1.72,1.23,1.23,0,0,1,.86.39,1.26,1.26,0,0,0-1-.52,1.58,1.58,0,0,0-1.38,1.72,1.91,1.91,0,0,0,.52,1.33A1.92,1.92,0,0,1,439.56,999.68Z" transform="translate(464.97 80.37)"/><path class="cls-67" d="M455.45,982.23a.75.75,0,1,1-.73-.91A.83.83,0,0,1,455.45,982.23Z" transform="translate(464.97 80.37)"/><path class="cls-67" d="M428.84,980a.74.74,0,1,1-.72-.91A.83.83,0,0,1,428.84,980Z" transform="translate(464.97 80.37)"/><ellipse class="cls-67" cx="891.42" cy="1073.24" rx="0.52" ry="0.65"/><ellipse class="cls-67" cx="916.64" cy="1069.77" rx="0.52" ry="0.65"/><path class="cls-67" d="M426.25,976.29a.61.61,0,0,1-.52.65.67.67,0,0,1,0-1.31A.61.61,0,0,1,426.25,976.29Z" transform="translate(464.97 80.37)"/></g></g></svg>